{
	"patcher" : 	{
		"fileversion" : 1,
		"appversion" : 		{
			"major" : 7,
			"minor" : 3,
			"revision" : 4,
			"architecture" : "x86",
			"modernui" : 1
		}
,
		"rect" : [ 96.0, 141.0, 866.0, 865.0 ],
		"bglocked" : 0,
		"openinpresentation" : 1,
		"default_fontsize" : 12.0,
		"default_fontface" : 0,
		"default_fontname" : "Arial",
		"gridonopen" : 1,
		"gridsize" : [ 15.0, 15.0 ],
		"gridsnaponopen" : 1,
		"objectsnaponopen" : 1,
		"statusbarvisible" : 2,
		"toolbarvisible" : 1,
		"lefttoolbarpinned" : 0,
		"toptoolbarpinned" : 0,
		"righttoolbarpinned" : 0,
		"bottomtoolbarpinned" : 0,
		"toolbars_unpinned_last_save" : 0,
		"tallnewobj" : 0,
		"boxanimatetime" : 200,
		"enablehscroll" : 1,
		"enablevscroll" : 1,
		"devicewidth" : 0.0,
		"description" : "",
		"digest" : "",
		"tags" : "",
		"style" : "",
		"subpatcher_template" : "",
		"boxes" : [ 			{
				"box" : 				{
					"fontsize" : 5.284004,
					"id" : "obj-69",
					"maxclass" : "newobj",
					"numinlets" : 1,
					"numoutlets" : 1,
					"outlettype" : [ "" ],
					"patching_rect" : [ 294.0, 868.5, 48.0, 14.0 ],
					"style" : "",
					"text" : "loadmess 0"
				}

			}
, 			{
				"box" : 				{
					"fontsize" : 4.0,
					"id" : "obj-34",
					"maxclass" : "newobj",
					"numinlets" : 2,
					"numoutlets" : 1,
					"outlettype" : [ "int" ],
					"patching_rect" : [ 232.0, 579.260742, 29.5, 13.0 ],
					"style" : "",
					"text" : "+ 1"
				}

			}
, 			{
				"box" : 				{
					"fontsize" : 4.0,
					"id" : "obj-42",
					"maxclass" : "newobj",
					"numinlets" : 2,
					"numoutlets" : 1,
					"outlettype" : [ "int" ],
					"patching_rect" : [ 232.0, 537.260742, 26.944458, 13.0 ],
					"style" : "",
					"text" : "- 1"
				}

			}
, 			{
				"box" : 				{
					"fontsize" : 4.0,
					"id" : "obj-33",
					"maxclass" : "newobj",
					"numinlets" : 2,
					"numoutlets" : 1,
					"outlettype" : [ "int" ],
					"patching_rect" : [ 202.0, 491.260742, 29.5, 13.0 ],
					"style" : "",
					"text" : "+ 1"
				}

			}
, 			{
				"box" : 				{
					"fontsize" : 4.0,
					"id" : "obj-32",
					"maxclass" : "newobj",
					"numinlets" : 2,
					"numoutlets" : 1,
					"outlettype" : [ "int" ],
					"patching_rect" : [ 202.0, 452.0, 26.944458, 13.0 ],
					"style" : "",
					"text" : "- 1"
				}

			}
, 			{
				"box" : 				{
					"fontsize" : 5.088451,
					"id" : "obj-59",
					"maxclass" : "newobj",
					"numinlets" : 2,
					"numoutlets" : 1,
					"outlettype" : [ "int" ],
					"patching_rect" : [ 294.0, 1104.401001, 39.0, 14.0 ],
					"style" : "",
					"text" : "i"
				}

			}
, 			{
				"box" : 				{
					"fontsize" : 5.088451,
					"id" : "obj-58",
					"maxclass" : "newobj",
					"numinlets" : 2,
					"numoutlets" : 1,
					"outlettype" : [ "int" ],
					"patching_rect" : [ 275.0, 837.0, 39.0, 14.0 ],
					"style" : "",
					"text" : "i"
				}

			}
, 			{
				"box" : 				{
					"fontsize" : 5.088451,
					"id" : "obj-51",
					"maxclass" : "newobj",
					"numinlets" : 2,
					"numoutlets" : 1,
					"outlettype" : [ "int" ],
					"patching_rect" : [ 244.0, 773.0, 39.0, 14.0 ],
					"style" : "",
					"text" : "i"
				}

			}
, 			{
				"box" : 				{
					"fontsize" : 5.088451,
					"id" : "obj-47",
					"maxclass" : "newobj",
					"numinlets" : 2,
					"numoutlets" : 1,
					"outlettype" : [ "int" ],
					"patching_rect" : [ 214.0, 718.0, 39.0, 14.0 ],
					"style" : "",
					"text" : "i"
				}

			}
, 			{
				"box" : 				{
					"fontsize" : 5.088451,
					"id" : "obj-46",
					"maxclass" : "newobj",
					"numinlets" : 2,
					"numoutlets" : 1,
					"outlettype" : [ "int" ],
					"patching_rect" : [ 96.0, 372.0, 39.0, 14.0 ],
					"style" : "",
					"text" : "i"
				}

			}
, 			{
				"box" : 				{
					"fontsize" : 5.088451,
					"id" : "obj-45",
					"maxclass" : "newobj",
					"numinlets" : 2,
					"numoutlets" : 1,
					"outlettype" : [ "int" ],
					"patching_rect" : [ 108.0, 292.0, 39.0, 14.0 ],
					"style" : "",
					"text" : "i"
				}

			}
, 			{
				"box" : 				{
					"fontsize" : 4.0,
					"id" : "obj-11",
					"maxclass" : "newobj",
					"numinlets" : 1,
					"numoutlets" : 1,
					"outlettype" : [ "" ],
					"patching_rect" : [ 203.0, 632.260742, 31.0, 13.0 ],
					"style" : "",
					"text" : "loadmess 5"
				}

			}
, 			{
				"box" : 				{
					"fontname" : "Arial Bold",
					"fontsize" : 9.0,
					"id" : "obj-12",
					"maxclass" : "comment",
					"numinlets" : 1,
					"numoutlets" : 0,
					"patching_rect" : [ 292.0, 631.401001, 168.5, 17.0 ],
					"presentation" : 1,
					"presentation_rect" : [ 90.0, 120.401001, 134.0, 17.0 ],
					"style" : "",
					"text" : "set_inhibitory_group_size",
					"textcolor" : [ 0.862745, 0.870588, 0.878431, 1.0 ]
				}

			}
, 			{
				"box" : 				{
					"activebgcolor" : [ 1.0, 1.0, 1.0, 0.3 ],
					"activeslidercolor" : [ 0.278431, 0.839216, 1.0, 1.0 ],
					"activetricolor" : [ 0.278431, 0.839216, 1.0, 1.0 ],
					"activetricolor2" : [ 1.0, 1.0, 1.0, 0.301961 ],
					"annotation" : "",
					"appearance" : 1,
					"bordercolor" : [ 1.0, 1.0, 1.0, 0.3 ],
					"focusbordercolor" : [ 1.0, 1.0, 1.0, 0.3 ],
					"id" : "obj-30",
					"maxclass" : "live.numbox",
					"numinlets" : 1,
					"numoutlets" : 2,
					"outlettype" : [ "", "float" ],
					"parameter_enable" : 1,
					"patching_rect" : [ 243.0, 632.401001, 36.0, 15.0 ],
					"presentation" : 1,
					"presentation_rect" : [ 41.0, 121.401001, 36.0, 15.0 ],
					"saved_attribute_attributes" : 					{
						"valueof" : 						{
							"parameter_longname" : "gatepct[19]",
							"parameter_shortname" : "gatepct",
							"parameter_type" : 0,
							"parameter_mmin" : 1.0,
							"parameter_mmax" : 10000.0,
							"parameter_initial" : [ 1.0 ],
							"parameter_unitstyle" : 0,
							"parameter_defer" : 1
						}

					}
,
					"textcolor" : [ 0.094118, 0.117647, 0.137255, 1.0 ],
					"tricolor2" : [ 1.0, 1.0, 1.0, 0.301961 ],
					"varname" : "gatepct[16]"
				}

			}
, 			{
				"box" : 				{
					"id" : "obj-31",
					"maxclass" : "newobj",
					"numinlets" : 1,
					"numoutlets" : 1,
					"outlettype" : [ "" ],
					"patching_rect" : [ 243.0, 653.0, 226.0, 22.0 ],
					"style" : "",
					"text" : "prepend /SNN/set_inhibitory_group_size"
				}

			}
, 			{
				"box" : 				{
					"fontsize" : 4.0,
					"id" : "obj-7",
					"maxclass" : "newobj",
					"numinlets" : 1,
					"numoutlets" : 1,
					"outlettype" : [ "" ],
					"patching_rect" : [ 278.0, 799.260742, 33.0, 13.0 ],
					"style" : "",
					"text" : "loadmess 20"
				}

			}
, 			{
				"box" : 				{
					"fontsize" : 4.0,
					"id" : "obj-6",
					"maxclass" : "newobj",
					"numinlets" : 1,
					"numoutlets" : 1,
					"outlettype" : [ "" ],
					"patching_rect" : [ 248.0, 743.260742, 33.0, 13.0 ],
					"style" : "",
					"text" : "loadmess 10"
				}

			}
, 			{
				"box" : 				{
					"fontsize" : 4.0,
					"id" : "obj-4",
					"maxclass" : "newobj",
					"numinlets" : 1,
					"numoutlets" : 1,
					"outlettype" : [ "" ],
					"patching_rect" : [ 218.0, 692.260742, 33.0, 13.0 ],
					"style" : "",
					"text" : "loadmess 10"
				}

			}
, 			{
				"box" : 				{
					"fontname" : "Arial Bold",
					"fontsize" : 9.0,
					"id" : "obj-94",
					"maxclass" : "comment",
					"numinlets" : 1,
					"numoutlets" : 0,
					"patching_rect" : [ 343.0, 1074.401001, 112.0, 17.0 ],
					"presentation" : 1,
					"presentation_rect" : [ 102.0, 7.742615, 45.0, 17.0 ],
					"style" : "",
					"text" : "port :",
					"textcolor" : [ 0.862745, 0.870588, 0.878431, 1.0 ]
				}

			}
, 			{
				"box" : 				{
					"activebgcolor" : [ 1.0, 1.0, 1.0, 0.3 ],
					"activeslidercolor" : [ 0.278431, 0.839216, 1.0, 1.0 ],
					"activetricolor" : [ 0.278431, 0.839216, 1.0, 1.0 ],
					"activetricolor2" : [ 1.0, 1.0, 1.0, 0.301961 ],
					"annotation" : "",
					"appearance" : 1,
					"bordercolor" : [ 1.0, 1.0, 1.0, 0.3 ],
					"focusbordercolor" : [ 1.0, 1.0, 1.0, 0.3 ],
					"id" : "obj-95",
					"maxclass" : "live.numbox",
					"numinlets" : 1,
					"numoutlets" : 2,
					"outlettype" : [ "", "float" ],
					"parameter_enable" : 1,
					"patching_rect" : [ 294.0, 1075.401001, 36.0, 15.0 ],
					"presentation" : 1,
					"presentation_rect" : [ 131.0, 8.742615, 36.0, 15.0 ],
					"saved_attribute_attributes" : 					{
						"valueof" : 						{
							"parameter_longname" : "gatepct[18]",
							"parameter_shortname" : "gatepct",
							"parameter_type" : 0,
							"parameter_mmin" : 1.0,
							"parameter_mmax" : 10000.0,
							"parameter_initial" : [ 1.0 ],
							"parameter_unitstyle" : 0,
							"parameter_defer" : 1
						}

					}
,
					"textcolor" : [ 0.094118, 0.117647, 0.137255, 1.0 ],
					"tricolor2" : [ 1.0, 1.0, 1.0, 0.301961 ],
					"varname" : "gatepct[17]"
				}

			}
, 			{
				"box" : 				{
					"fontsize" : 4.0,
					"id" : "obj-93",
					"maxclass" : "newobj",
					"numinlets" : 1,
					"numoutlets" : 1,
					"outlettype" : [ "" ],
					"patching_rect" : [ 244.5, 1075.401001, 37.0, 13.0 ],
					"style" : "",
					"text" : "loadmess 7511"
				}

			}
, 			{
				"box" : 				{
					"id" : "obj-88",
					"maxclass" : "newobj",
					"numinlets" : 3,
					"numoutlets" : 3,
					"outlettype" : [ "", "", "" ],
					"patching_rect" : [ 392.0, 1051.0, 88.0, 22.0 ],
					"style" : "",
					"text" : "route port host"
				}

			}
, 			{
				"box" : 				{
					"annotation" : "",
					"comment" : "set localhost and port",
					"hint" : "",
					"id" : "obj-1",
					"index" : 0,
					"maxclass" : "inlet",
					"numinlets" : 0,
					"numoutlets" : 1,
					"outlettype" : [ "" ],
					"patching_rect" : [ 392.0, 1016.401001, 30.0, 30.0 ],
					"style" : ""
				}

			}
, 			{
				"box" : 				{
					"fontname" : "Arial Bold",
					"fontsize" : 9.0,
					"id" : "obj-87",
					"linecount" : 7,
					"maxclass" : "comment",
					"numinlets" : 1,
					"numoutlets" : 0,
					"patching_rect" : [ 810.0, 383.401001, 17.0, 77.0 ],
					"presentation" : 1,
					"presentation_rect" : [ 227.5, 201.51088, 59.0, 17.0 ],
					"style" : "",
					"text" : "stimulation",
					"textcolor" : [ 0.862745, 0.870588, 0.878431, 1.0 ]
				}

			}
, 			{
				"box" : 				{
					"activebgcolor" : [ 1.0, 1.0, 1.0, 0.3 ],
					"activeslidercolor" : [ 0.278431, 0.839216, 1.0, 1.0 ],
					"activetricolor" : [ 0.278431, 0.839216, 1.0, 1.0 ],
					"activetricolor2" : [ 1.0, 1.0, 1.0, 0.301961 ],
					"annotation" : "",
					"appearance" : 1,
					"bordercolor" : [ 1.0, 1.0, 1.0, 0.3 ],
					"focusbordercolor" : [ 1.0, 1.0, 1.0, 0.3 ],
					"id" : "obj-86",
					"maxclass" : "live.numbox",
					"numinlets" : 1,
					"numoutlets" : 2,
					"outlettype" : [ "", "float" ],
					"parameter_enable" : 1,
					"patching_rect" : [ 765.0, 488.401001, 36.0, 15.0 ],
					"presentation" : 1,
					"presentation_rect" : [ 239.0, 183.401001, 36.0, 15.0 ],
					"saved_attribute_attributes" : 					{
						"valueof" : 						{
							"parameter_longname" : "gatepct[16]",
							"parameter_shortname" : "gatepct",
							"parameter_type" : 1,
							"parameter_mmin" : -128.0,
							"parameter_initial" : [ 1.0 ],
							"parameter_unitstyle" : 0,
							"parameter_defer" : 1
						}

					}
,
					"textcolor" : [ 0.094118, 0.117647, 0.137255, 1.0 ],
					"tricolor2" : [ 1.0, 1.0, 1.0, 0.301961 ],
					"varname" : "gatepct[15]"
				}

			}
, 			{
				"box" : 				{
					"activebgcolor" : [ 1.0, 1.0, 1.0, 0.3 ],
					"activeslidercolor" : [ 0.278431, 0.839216, 1.0, 1.0 ],
					"activetricolor" : [ 0.278431, 0.839216, 1.0, 1.0 ],
					"activetricolor2" : [ 1.0, 1.0, 1.0, 0.301961 ],
					"annotation" : "",
					"appearance" : 1,
					"bordercolor" : [ 1.0, 1.0, 1.0, 0.3 ],
					"focusbordercolor" : [ 1.0, 1.0, 1.0, 0.3 ],
					"id" : "obj-83",
					"maxclass" : "live.numbox",
					"numinlets" : 1,
					"numoutlets" : 2,
					"outlettype" : [ "", "float" ],
					"parameter_enable" : 1,
					"patching_rect" : [ 750.0, 473.401001, 36.0, 15.0 ],
					"presentation" : 1,
					"presentation_rect" : [ 239.0, 168.401001, 36.0, 15.0 ],
					"saved_attribute_attributes" : 					{
						"valueof" : 						{
							"parameter_longname" : "gatepct[13]",
							"parameter_shortname" : "gatepct",
							"parameter_type" : 1,
							"parameter_mmin" : -128.0,
							"parameter_initial" : [ 1.0 ],
							"parameter_unitstyle" : 0,
							"parameter_defer" : 1
						}

					}
,
					"textcolor" : [ 0.094118, 0.117647, 0.137255, 1.0 ],
					"tricolor2" : [ 1.0, 1.0, 1.0, 0.301961 ],
					"varname" : "gatepct[12]"
				}

			}
, 			{
				"box" : 				{
					"activebgcolor" : [ 1.0, 1.0, 1.0, 0.3 ],
					"activeslidercolor" : [ 0.278431, 0.839216, 1.0, 1.0 ],
					"activetricolor" : [ 0.278431, 0.839216, 1.0, 1.0 ],
					"activetricolor2" : [ 1.0, 1.0, 1.0, 0.301961 ],
					"annotation" : "",
					"appearance" : 1,
					"bordercolor" : [ 1.0, 1.0, 1.0, 0.3 ],
					"focusbordercolor" : [ 1.0, 1.0, 1.0, 0.3 ],
					"id" : "obj-84",
					"maxclass" : "live.numbox",
					"numinlets" : 1,
					"numoutlets" : 2,
					"outlettype" : [ "", "float" ],
					"parameter_enable" : 1,
					"patching_rect" : [ 735.0, 458.401001, 36.0, 15.0 ],
					"presentation" : 1,
					"presentation_rect" : [ 239.0, 153.401001, 36.0, 15.0 ],
					"saved_attribute_attributes" : 					{
						"valueof" : 						{
							"parameter_longname" : "gatepct[14]",
							"parameter_shortname" : "gatepct",
							"parameter_type" : 1,
							"parameter_mmin" : -128.0,
							"parameter_initial" : [ 1.0 ],
							"parameter_unitstyle" : 0,
							"parameter_defer" : 1
						}

					}
,
					"textcolor" : [ 0.094118, 0.117647, 0.137255, 1.0 ],
					"tricolor2" : [ 1.0, 1.0, 1.0, 0.301961 ],
					"varname" : "gatepct[13]"
				}

			}
, 			{
				"box" : 				{
					"activebgcolor" : [ 1.0, 1.0, 1.0, 0.3 ],
					"activeslidercolor" : [ 0.278431, 0.839216, 1.0, 1.0 ],
					"activetricolor" : [ 0.278431, 0.839216, 1.0, 1.0 ],
					"activetricolor2" : [ 1.0, 1.0, 1.0, 0.301961 ],
					"annotation" : "",
					"appearance" : 1,
					"bordercolor" : [ 1.0, 1.0, 1.0, 0.3 ],
					"focusbordercolor" : [ 1.0, 1.0, 1.0, 0.3 ],
					"id" : "obj-85",
					"maxclass" : "live.numbox",
					"numinlets" : 1,
					"numoutlets" : 2,
					"outlettype" : [ "", "float" ],
					"parameter_enable" : 1,
					"patching_rect" : [ 720.0, 443.401001, 36.0, 15.0 ],
					"presentation" : 1,
					"presentation_rect" : [ 239.0, 138.401001, 36.0, 15.0 ],
					"saved_attribute_attributes" : 					{
						"valueof" : 						{
							"parameter_longname" : "gatepct[15]",
							"parameter_shortname" : "gatepct",
							"parameter_type" : 1,
							"parameter_mmin" : -128.0,
							"parameter_initial" : [ 1.0 ],
							"parameter_unitstyle" : 0,
							"parameter_defer" : 1
						}

					}
,
					"textcolor" : [ 0.094118, 0.117647, 0.137255, 1.0 ],
					"tricolor2" : [ 1.0, 1.0, 1.0, 0.301961 ],
					"varname" : "gatepct[14]"
				}

			}
, 			{
				"box" : 				{
					"activebgcolor" : [ 1.0, 1.0, 1.0, 0.3 ],
					"activeslidercolor" : [ 0.278431, 0.839216, 1.0, 1.0 ],
					"activetricolor" : [ 0.278431, 0.839216, 1.0, 1.0 ],
					"activetricolor2" : [ 1.0, 1.0, 1.0, 0.301961 ],
					"annotation" : "",
					"appearance" : 1,
					"bordercolor" : [ 1.0, 1.0, 1.0, 0.3 ],
					"focusbordercolor" : [ 1.0, 1.0, 1.0, 0.3 ],
					"id" : "obj-80",
					"maxclass" : "live.numbox",
					"numinlets" : 1,
					"numoutlets" : 2,
					"outlettype" : [ "", "float" ],
					"parameter_enable" : 1,
					"patching_rect" : [ 705.0, 428.401001, 36.0, 15.0 ],
					"presentation" : 1,
					"presentation_rect" : [ 239.0, 123.401001, 36.0, 15.0 ],
					"saved_attribute_attributes" : 					{
						"valueof" : 						{
							"parameter_longname" : "gatepct[10]",
							"parameter_shortname" : "gatepct",
							"parameter_type" : 1,
							"parameter_mmin" : -128.0,
							"parameter_initial" : [ 1.0 ],
							"parameter_unitstyle" : 0,
							"parameter_defer" : 1
						}

					}
,
					"textcolor" : [ 0.094118, 0.117647, 0.137255, 1.0 ],
					"tricolor2" : [ 1.0, 1.0, 1.0, 0.301961 ],
					"varname" : "gatepct[9]"
				}

			}
, 			{
				"box" : 				{
					"activebgcolor" : [ 1.0, 1.0, 1.0, 0.3 ],
					"activeslidercolor" : [ 0.278431, 0.839216, 1.0, 1.0 ],
					"activetricolor" : [ 0.278431, 0.839216, 1.0, 1.0 ],
					"activetricolor2" : [ 1.0, 1.0, 1.0, 0.301961 ],
					"annotation" : "",
					"appearance" : 1,
					"bordercolor" : [ 1.0, 1.0, 1.0, 0.3 ],
					"focusbordercolor" : [ 1.0, 1.0, 1.0, 0.3 ],
					"id" : "obj-81",
					"maxclass" : "live.numbox",
					"numinlets" : 1,
					"numoutlets" : 2,
					"outlettype" : [ "", "float" ],
					"parameter_enable" : 1,
					"patching_rect" : [ 690.0, 413.401001, 36.0, 15.0 ],
					"presentation" : 1,
					"presentation_rect" : [ 239.0, 108.401001, 36.0, 15.0 ],
					"saved_attribute_attributes" : 					{
						"valueof" : 						{
							"parameter_longname" : "gatepct[11]",
							"parameter_shortname" : "gatepct",
							"parameter_type" : 1,
							"parameter_mmin" : -128.0,
							"parameter_initial" : [ 1.0 ],
							"parameter_unitstyle" : 0,
							"parameter_defer" : 1
						}

					}
,
					"textcolor" : [ 0.094118, 0.117647, 0.137255, 1.0 ],
					"tricolor2" : [ 1.0, 1.0, 1.0, 0.301961 ],
					"varname" : "gatepct[10]"
				}

			}
, 			{
				"box" : 				{
					"activebgcolor" : [ 1.0, 1.0, 1.0, 0.3 ],
					"activeslidercolor" : [ 0.278431, 0.839216, 1.0, 1.0 ],
					"activetricolor" : [ 0.278431, 0.839216, 1.0, 1.0 ],
					"activetricolor2" : [ 1.0, 1.0, 1.0, 0.301961 ],
					"annotation" : "",
					"appearance" : 1,
					"bordercolor" : [ 1.0, 1.0, 1.0, 0.3 ],
					"focusbordercolor" : [ 1.0, 1.0, 1.0, 0.3 ],
					"id" : "obj-82",
					"maxclass" : "live.numbox",
					"numinlets" : 1,
					"numoutlets" : 2,
					"outlettype" : [ "", "float" ],
					"parameter_enable" : 1,
					"patching_rect" : [ 675.0, 398.401001, 36.0, 15.0 ],
					"presentation" : 1,
					"presentation_rect" : [ 239.0, 93.401001, 36.0, 15.0 ],
					"saved_attribute_attributes" : 					{
						"valueof" : 						{
							"parameter_longname" : "gatepct[12]",
							"parameter_shortname" : "gatepct",
							"parameter_type" : 1,
							"parameter_mmin" : -128.0,
							"parameter_initial" : [ 1.0 ],
							"parameter_unitstyle" : 0,
							"parameter_defer" : 1
						}

					}
,
					"textcolor" : [ 0.094118, 0.117647, 0.137255, 1.0 ],
					"tricolor2" : [ 1.0, 1.0, 1.0, 0.301961 ],
					"varname" : "gatepct[11]"
				}

			}
, 			{
				"box" : 				{
					"activebgcolor" : [ 1.0, 1.0, 1.0, 0.3 ],
					"activeslidercolor" : [ 0.278431, 0.839216, 1.0, 1.0 ],
					"activetricolor" : [ 0.278431, 0.839216, 1.0, 1.0 ],
					"activetricolor2" : [ 1.0, 1.0, 1.0, 0.301961 ],
					"annotation" : "",
					"appearance" : 1,
					"bordercolor" : [ 1.0, 1.0, 1.0, 0.3 ],
					"focusbordercolor" : [ 1.0, 1.0, 1.0, 0.3 ],
					"id" : "obj-79",
					"maxclass" : "live.numbox",
					"numinlets" : 1,
					"numoutlets" : 2,
					"outlettype" : [ "", "float" ],
					"parameter_enable" : 1,
					"patching_rect" : [ 660.0, 383.401001, 36.0, 15.0 ],
					"presentation" : 1,
					"presentation_rect" : [ 239.0, 78.401001, 36.0, 15.0 ],
					"saved_attribute_attributes" : 					{
						"valueof" : 						{
							"parameter_longname" : "gatepct[9]",
							"parameter_shortname" : "gatepct",
							"parameter_type" : 1,
							"parameter_mmin" : -128.0,
							"parameter_initial" : [ 1.0 ],
							"parameter_unitstyle" : 0,
							"parameter_defer" : 1
						}

					}
,
					"textcolor" : [ 0.094118, 0.117647, 0.137255, 1.0 ],
					"tricolor2" : [ 1.0, 1.0, 1.0, 0.301961 ],
					"varname" : "gatepct[8]"
				}

			}
, 			{
				"box" : 				{
					"activebgcolor" : [ 1.0, 1.0, 1.0, 0.3 ],
					"activeslidercolor" : [ 0.278431, 0.839216, 1.0, 1.0 ],
					"activetricolor" : [ 0.278431, 0.839216, 1.0, 1.0 ],
					"activetricolor2" : [ 1.0, 1.0, 1.0, 0.301961 ],
					"annotation" : "",
					"appearance" : 1,
					"bordercolor" : [ 1.0, 1.0, 1.0, 0.3 ],
					"focusbordercolor" : [ 1.0, 1.0, 1.0, 0.3 ],
					"id" : "obj-78",
					"maxclass" : "live.numbox",
					"numinlets" : 1,
					"numoutlets" : 2,
					"outlettype" : [ "", "float" ],
					"parameter_enable" : 1,
					"patching_rect" : [ 645.0, 368.401001, 36.0, 15.0 ],
					"presentation" : 1,
					"presentation_rect" : [ 239.0, 63.401001, 36.0, 15.0 ],
					"saved_attribute_attributes" : 					{
						"valueof" : 						{
							"parameter_longname" : "gatepct[8]",
							"parameter_shortname" : "gatepct",
							"parameter_type" : 1,
							"parameter_mmin" : -128.0,
							"parameter_initial" : [ 1.0 ],
							"parameter_unitstyle" : 0,
							"parameter_defer" : 1
						}

					}
,
					"textcolor" : [ 0.094118, 0.117647, 0.137255, 1.0 ],
					"tricolor2" : [ 1.0, 1.0, 1.0, 0.301961 ],
					"varname" : "gatepct[7]"
				}

			}
, 			{
				"box" : 				{
					"id" : "obj-77",
					"maxclass" : "newobj",
					"numinlets" : 1,
					"numoutlets" : 10,
					"outlettype" : [ "int", "int", "int", "int", "int", "int", "int", "int", "int", "int" ],
					"patching_rect" : [ 632.0, 315.401001, 113.5, 22.0 ],
					"style" : "",
					"text" : "unpack i i i i i i i i i i"
				}

			}
, 			{
				"box" : 				{
					"activebgcolor" : [ 1.0, 1.0, 1.0, 0.3 ],
					"activeslidercolor" : [ 0.278431, 0.839216, 1.0, 1.0 ],
					"activetricolor" : [ 0.278431, 0.839216, 1.0, 1.0 ],
					"activetricolor2" : [ 1.0, 1.0, 1.0, 0.301961 ],
					"annotation" : "",
					"appearance" : 1,
					"bordercolor" : [ 1.0, 1.0, 1.0, 0.3 ],
					"focusbordercolor" : [ 1.0, 1.0, 1.0, 0.3 ],
					"id" : "obj-76",
					"maxclass" : "live.numbox",
					"numinlets" : 1,
					"numoutlets" : 2,
					"outlettype" : [ "", "float" ],
					"parameter_enable" : 1,
					"patching_rect" : [ 630.0, 353.401001, 36.0, 15.0 ],
					"presentation" : 1,
					"presentation_rect" : [ 239.0, 48.401001, 36.0, 15.0 ],
					"saved_attribute_attributes" : 					{
						"valueof" : 						{
							"parameter_longname" : "gatepct[7]",
							"parameter_shortname" : "gatepct",
							"parameter_type" : 1,
							"parameter_mmin" : -128.0,
							"parameter_initial" : [ 1.0 ],
							"parameter_unitstyle" : 0,
							"parameter_defer" : 1
						}

					}
,
					"textcolor" : [ 0.094118, 0.117647, 0.137255, 1.0 ],
					"tricolor2" : [ 1.0, 1.0, 1.0, 0.301961 ],
					"varname" : "gatepct[6]"
				}

			}
, 			{
				"box" : 				{
					"id" : "obj-75",
					"maxclass" : "newobj",
					"numinlets" : 2,
					"numoutlets" : 2,
					"outlettype" : [ "", "" ],
					"patching_rect" : [ 617.0, 286.401001, 99.0, 22.0 ],
					"style" : "",
					"text" : "route stimulation"
				}

			}
, 			{
				"box" : 				{
					"fontsize" : 4.0,
					"id" : "obj-70",
					"maxclass" : "newobj",
					"numinlets" : 1,
					"numoutlets" : 1,
					"outlettype" : [ "" ],
					"patching_rect" : [ 337.0, 928.5, 31.0, 13.0 ],
					"style" : "",
					"text" : "loadmess 1"
				}

			}
, 			{
				"box" : 				{
					"fontname" : "Arial Bold",
					"fontsize" : 9.0,
					"id" : "obj-67",
					"maxclass" : "comment",
					"numinlets" : 1,
					"numoutlets" : 0,
					"patching_rect" : [ 427.0, 928.5, 193.0, 17.0 ],
					"presentation" : 1,
					"presentation_rect" : [ 90.0, 205.628555, 139.0, 17.0 ],
					"style" : "",
					"text" : "set_stdp_flag",
					"textcolor" : [ 0.862745, 0.870588, 0.878431, 1.0 ]
				}

			}
, 			{
				"box" : 				{
					"activebgcolor" : [ 0.572549, 0.615686, 0.658824, 0.0 ],
					"activebgoncolor" : [ 0.278431, 0.839216, 1.0, 1.0 ],
					"activetextcolor" : [ 1.0, 1.0, 1.0, 0.57 ],
					"activetextoncolor" : [ 0.0, 0.019608, 0.078431, 1.0 ],
					"bgcolor" : [ 0.101961, 0.101961, 0.101961, 0.78 ],
					"bordercolor" : [ 0.0, 0.019608, 0.078431, 0.37 ],
					"id" : "obj-68",
					"maxclass" : "live.text",
					"numinlets" : 1,
					"numoutlets" : 2,
					"outlettype" : [ "", "" ],
					"parameter_enable" : 1,
					"patching_rect" : [ 378.0, 926.5, 40.0, 20.0 ],
					"presentation" : 1,
					"presentation_rect" : [ 32.0, 206.746231, 45.0, 14.764645 ],
					"saved_attribute_attributes" : 					{
						"valueof" : 						{
							"parameter_longname" : "Legato[1]",
							"parameter_shortname" : "Legato",
							"parameter_type" : 2,
							"parameter_mmax" : 1.0,
							"parameter_enum" : [ "val1", "val2" ],
							"parameter_initial_enable" : 1,
							"parameter_initial" : [ 1 ],
							"parameter_defer" : 1
						}

					}
,
					"text" : "stdp",
					"textcolor" : [ 1.0, 1.0, 1.0, 1.0 ],
					"texton" : "stdp",
					"varname" : "Legato[1]"
				}

			}
, 			{
				"box" : 				{
					"fontname" : "Arial Bold",
					"fontsize" : 9.0,
					"id" : "obj-66",
					"maxclass" : "comment",
					"numinlets" : 1,
					"numoutlets" : 0,
					"patching_rect" : [ 397.0, 868.5, 193.0, 17.0 ],
					"presentation" : 1,
					"presentation_rect" : [ 90.0, 188.401001, 139.0, 17.0 ],
					"style" : "",
					"text" : "set_stp_flag",
					"textcolor" : [ 0.862745, 0.870588, 0.878431, 1.0 ]
				}

			}
, 			{
				"box" : 				{
					"fontname" : "Arial Bold",
					"fontsize" : 9.0,
					"id" : "obj-62",
					"maxclass" : "comment",
					"numinlets" : 1,
					"numoutlets" : 0,
					"patching_rect" : [ 366.0, 799.401001, 193.0, 17.0 ],
					"presentation" : 1,
					"presentation_rect" : [ 90.0, 171.401001, 139.0, 17.0 ],
					"style" : "",
					"text" : "set_number_of_connections",
					"textcolor" : [ 0.862745, 0.870588, 0.878431, 1.0 ]
				}

			}
, 			{
				"box" : 				{
					"activebgcolor" : [ 1.0, 1.0, 1.0, 0.3 ],
					"activeslidercolor" : [ 0.278431, 0.839216, 1.0, 1.0 ],
					"activetricolor" : [ 0.278431, 0.839216, 1.0, 1.0 ],
					"activetricolor2" : [ 1.0, 1.0, 1.0, 0.301961 ],
					"annotation" : "",
					"appearance" : 1,
					"bordercolor" : [ 1.0, 1.0, 1.0, 0.3 ],
					"focusbordercolor" : [ 1.0, 1.0, 1.0, 0.3 ],
					"id" : "obj-63",
					"maxclass" : "live.numbox",
					"numinlets" : 1,
					"numoutlets" : 2,
					"outlettype" : [ "", "float" ],
					"parameter_enable" : 1,
					"patching_rect" : [ 318.0, 799.401001, 36.0, 15.0 ],
					"presentation" : 1,
					"presentation_rect" : [ 41.0, 172.401001, 36.0, 15.0 ],
					"saved_attribute_attributes" : 					{
						"valueof" : 						{
							"parameter_longname" : "gatepct[6]",
							"parameter_shortname" : "gatepct",
							"parameter_type" : 0,
							"parameter_mmin" : 1.0,
							"parameter_mmax" : 10000.0,
							"parameter_initial" : [ 1.0 ],
							"parameter_unitstyle" : 0,
							"parameter_defer" : 1
						}

					}
,
					"textcolor" : [ 0.094118, 0.117647, 0.137255, 1.0 ],
					"tricolor2" : [ 1.0, 1.0, 1.0, 0.301961 ],
					"varname" : "gatepct[5]"
				}

			}
, 			{
				"box" : 				{
					"fontname" : "Arial Bold",
					"fontsize" : 9.0,
					"id" : "obj-60",
					"maxclass" : "comment",
					"numinlets" : 1,
					"numoutlets" : 0,
					"patching_rect" : [ 337.0, 742.401001, 112.0, 17.0 ],
					"presentation" : 1,
					"presentation_rect" : [ 90.0, 154.401001, 112.0, 17.0 ],
					"style" : "",
					"text" : "set_output_group_size",
					"textcolor" : [ 0.862745, 0.870588, 0.878431, 1.0 ]
				}

			}
, 			{
				"box" : 				{
					"activebgcolor" : [ 1.0, 1.0, 1.0, 0.3 ],
					"activeslidercolor" : [ 0.278431, 0.839216, 1.0, 1.0 ],
					"activetricolor" : [ 0.278431, 0.839216, 1.0, 1.0 ],
					"activetricolor2" : [ 1.0, 1.0, 1.0, 0.301961 ],
					"annotation" : "",
					"appearance" : 1,
					"bordercolor" : [ 1.0, 1.0, 1.0, 0.3 ],
					"focusbordercolor" : [ 1.0, 1.0, 1.0, 0.3 ],
					"id" : "obj-61",
					"maxclass" : "live.numbox",
					"numinlets" : 1,
					"numoutlets" : 2,
					"outlettype" : [ "", "float" ],
					"parameter_enable" : 1,
					"patching_rect" : [ 288.0, 743.401001, 36.0, 15.0 ],
					"presentation" : 1,
					"presentation_rect" : [ 41.0, 155.401001, 36.0, 15.0 ],
					"saved_attribute_attributes" : 					{
						"valueof" : 						{
							"parameter_longname" : "gatepct[5]",
							"parameter_shortname" : "gatepct",
							"parameter_type" : 0,
							"parameter_mmin" : 1.0,
							"parameter_mmax" : 10000.0,
							"parameter_initial" : [ 1.0 ],
							"parameter_unitstyle" : 0,
							"parameter_defer" : 1
						}

					}
,
					"textcolor" : [ 0.094118, 0.117647, 0.137255, 1.0 ],
					"tricolor2" : [ 1.0, 1.0, 1.0, 0.301961 ],
					"varname" : "gatepct[4]"
				}

			}
, 			{
				"box" : 				{
					"fontname" : "Arial Bold",
					"fontsize" : 9.0,
					"id" : "obj-56",
					"maxclass" : "comment",
					"numinlets" : 1,
					"numoutlets" : 0,
					"patching_rect" : [ 307.0, 691.401001, 112.0, 17.0 ],
					"presentation" : 1,
					"presentation_rect" : [ 90.0, 137.401001, 112.0, 17.0 ],
					"style" : "",
					"text" : "set_input_group_size",
					"textcolor" : [ 0.862745, 0.870588, 0.878431, 1.0 ]
				}

			}
, 			{
				"box" : 				{
					"activebgcolor" : [ 1.0, 1.0, 1.0, 0.3 ],
					"activeslidercolor" : [ 0.278431, 0.839216, 1.0, 1.0 ],
					"activetricolor" : [ 0.278431, 0.839216, 1.0, 1.0 ],
					"activetricolor2" : [ 1.0, 1.0, 1.0, 0.301961 ],
					"annotation" : "",
					"appearance" : 1,
					"bordercolor" : [ 1.0, 1.0, 1.0, 0.3 ],
					"focusbordercolor" : [ 1.0, 1.0, 1.0, 0.3 ],
					"id" : "obj-57",
					"maxclass" : "live.numbox",
					"numinlets" : 1,
					"numoutlets" : 2,
					"outlettype" : [ "", "float" ],
					"parameter_enable" : 1,
					"patching_rect" : [ 258.0, 692.401001, 36.0, 15.0 ],
					"presentation" : 1,
					"presentation_rect" : [ 41.0, 138.401001, 36.0, 15.0 ],
					"saved_attribute_attributes" : 					{
						"valueof" : 						{
							"parameter_longname" : "gatepct[4]",
							"parameter_shortname" : "gatepct",
							"parameter_type" : 0,
							"parameter_mmin" : 1.0,
							"parameter_mmax" : 10000.0,
							"parameter_initial" : [ 1.0 ],
							"parameter_unitstyle" : 0,
							"parameter_defer" : 1
						}

					}
,
					"textcolor" : [ 0.094118, 0.117647, 0.137255, 1.0 ],
					"tricolor2" : [ 1.0, 1.0, 1.0, 0.301961 ],
					"varname" : "gatepct[3]"
				}

			}
, 			{
				"box" : 				{
					"fontsize" : 4.0,
					"id" : "obj-52",
					"maxclass" : "newobj",
					"numinlets" : 1,
					"numoutlets" : 1,
					"outlettype" : [ "" ],
					"patching_rect" : [ 192.0, 542.260742, 31.0, 13.0 ],
					"style" : "",
					"text" : "loadmess 4"
				}

			}
, 			{
				"box" : 				{
					"fontname" : "Arial Bold",
					"fontsize" : 9.0,
					"id" : "obj-53",
					"maxclass" : "comment",
					"numinlets" : 1,
					"numoutlets" : 0,
					"patching_rect" : [ 314.0, 542.260742, 144.0, 17.0 ],
					"presentation" : 1,
					"presentation_rect" : [ 90.0, 103.401001, 129.144897, 17.0 ],
					"style" : "",
					"text" : "set_excitatory_neuron_type",
					"textcolor" : [ 0.862745, 0.870588, 0.878431, 1.0 ]
				}

			}
, 			{
				"box" : 				{
					"activebgcolor" : [ 0.0, 0.0, 0.0, 0.0 ],
					"annotation" : "Determines the rate at which a step advances. Set in terms of metric values (eg: 1/8 = 1/8th note) Swing is only available at 1/8, 1/16 and 1/32 values. ",
					"bordercolor" : [ 1.0, 1.0, 1.0, 0.2 ],
					"hltcolor" : [ 0.278431, 0.839216, 1.0, 1.0 ],
					"id" : "obj-54",
					"maxclass" : "live.menu",
					"numinlets" : 1,
					"numoutlets" : 3,
					"outlettype" : [ "", "", "float" ],
					"parameter_enable" : 1,
					"patching_rect" : [ 232.0, 557.260742, 71.944458, 15.0 ],
					"presentation" : 1,
					"presentation_rect" : [ 10.151497, 103.401001, 66.848503, 15.0 ],
					"saved_attribute_attributes" : 					{
						"valueof" : 						{
							"parameter_longname" : "Pulse[3]",
							"parameter_shortname" : "Pulse",
							"parameter_type" : 2,
							"parameter_enum" : [ "spiking_rand", "resonator_rand", "spiking_uniform", "resonator_uniform", "chattering" ],
							"parameter_initial" : [ 4.0 ],
							"parameter_invisible" : 1
						}

					}
,
					"textcolor" : [ 1.0, 1.0, 1.0, 0.6 ],
					"varname" : "Pulse[2]"
				}

			}
, 			{
				"box" : 				{
					"id" : "obj-55",
					"maxclass" : "newobj",
					"numinlets" : 1,
					"numoutlets" : 1,
					"outlettype" : [ "" ],
					"patching_rect" : [ 232.0, 596.094055, 237.0, 22.0 ],
					"style" : "",
					"text" : "prepend /SNN/set_excitatory_neuron_type"
				}

			}
, 			{
				"box" : 				{
					"fontsize" : 4.0,
					"id" : "obj-48",
					"maxclass" : "newobj",
					"numinlets" : 1,
					"numoutlets" : 1,
					"outlettype" : [ "" ],
					"patching_rect" : [ 162.0, 470.260742, 31.0, 13.0 ],
					"style" : "",
					"text" : "loadmess 4"
				}

			}
, 			{
				"box" : 				{
					"fontname" : "Arial Bold",
					"fontsize" : 9.0,
					"id" : "obj-49",
					"maxclass" : "comment",
					"numinlets" : 1,
					"numoutlets" : 0,
					"patching_rect" : [ 283.0, 469.260742, 144.0, 17.0 ],
					"presentation" : 1,
					"presentation_rect" : [ 90.0, 86.401001, 129.144897, 17.0 ],
					"style" : "",
					"text" : "set_inhibitory_neuron_type",
					"textcolor" : [ 0.862745, 0.870588, 0.878431, 1.0 ]
				}

			}
, 			{
				"box" : 				{
					"activebgcolor" : [ 0.0, 0.0, 0.0, 0.0 ],
					"annotation" : "Determines the rate at which a step advances. Set in terms of metric values (eg: 1/8 = 1/8th note) Swing is only available at 1/8, 1/16 and 1/32 values. ",
					"bordercolor" : [ 1.0, 1.0, 1.0, 0.2 ],
					"hltcolor" : [ 0.278431, 0.839216, 1.0, 1.0 ],
					"id" : "obj-50",
					"maxclass" : "live.menu",
					"numinlets" : 1,
					"numoutlets" : 3,
					"outlettype" : [ "", "", "float" ],
					"parameter_enable" : 1,
					"patching_rect" : [ 202.0, 470.260742, 71.944458, 15.0 ],
					"presentation" : 1,
					"presentation_rect" : [ 10.151497, 86.401001, 66.848503, 15.0 ],
					"saved_attribute_attributes" : 					{
						"valueof" : 						{
							"parameter_longname" : "Pulse[2]",
							"parameter_shortname" : "Pulse",
							"parameter_type" : 2,
							"parameter_enum" : [ "spiking_rand", "resonator_rand", "spiking_uniform", "resonator_uniform", "chattering" ],
							"parameter_initial" : [ 4.0 ],
							"parameter_invisible" : 1
						}

					}
,
					"textcolor" : [ 1.0, 1.0, 1.0, 0.6 ],
					"varname" : "Pulse[1]"
				}

			}
, 			{
				"box" : 				{
					"fontsize" : 4.0,
					"id" : "obj-44",
					"maxclass" : "newobj",
					"numinlets" : 1,
					"numoutlets" : 1,
					"outlettype" : [ "" ],
					"patching_rect" : [ 113.0, 407.260742, 31.0, 13.0 ],
					"style" : "",
					"text" : "loadmess 3"
				}

			}
, 			{
				"box" : 				{
					"fontname" : "Arial Bold",
					"fontsize" : 9.0,
					"id" : "obj-41",
					"maxclass" : "comment",
					"numinlets" : 1,
					"numoutlets" : 0,
					"patching_rect" : [ 249.0, 406.260742, 112.0, 17.0 ],
					"presentation" : 1,
					"presentation_rect" : [ 90.0, 69.401001, 112.0, 17.0 ],
					"style" : "",
					"text" : "set_network_type",
					"textcolor" : [ 0.862745, 0.870588, 0.878431, 1.0 ]
				}

			}
, 			{
				"box" : 				{
					"fontsize" : 4.0,
					"id" : "obj-40",
					"maxclass" : "newobj",
					"numinlets" : 1,
					"numoutlets" : 1,
					"outlettype" : [ "" ],
					"patching_rect" : [ 83.0, 345.401001, 44.0, 13.0 ],
					"style" : "",
					"text" : "loadmess 3240"
				}

			}
, 			{
				"box" : 				{
					"fontname" : "Arial Bold",
					"fontsize" : 9.0,
					"id" : "obj-38",
					"maxclass" : "comment",
					"numinlets" : 1,
					"numoutlets" : 0,
					"patching_rect" : [ 187.0, 343.401001, 112.0, 17.0 ],
					"presentation" : 1,
					"presentation_rect" : [ 90.0, 51.401001, 112.0, 17.0 ],
					"style" : "",
					"text" : "number_of_neurons",
					"textcolor" : [ 0.862745, 0.870588, 0.878431, 1.0 ]
				}

			}
, 			{
				"box" : 				{
					"activebgcolor" : [ 1.0, 1.0, 1.0, 0.3 ],
					"activeslidercolor" : [ 0.278431, 0.839216, 1.0, 1.0 ],
					"activetricolor" : [ 0.278431, 0.839216, 1.0, 1.0 ],
					"activetricolor2" : [ 1.0, 1.0, 1.0, 0.301961 ],
					"annotation" : "",
					"appearance" : 1,
					"bordercolor" : [ 1.0, 1.0, 1.0, 0.3 ],
					"focusbordercolor" : [ 1.0, 1.0, 1.0, 0.3 ],
					"id" : "obj-39",
					"maxclass" : "live.numbox",
					"numinlets" : 1,
					"numoutlets" : 2,
					"outlettype" : [ "", "float" ],
					"parameter_enable" : 1,
					"patching_rect" : [ 138.0, 344.401001, 36.0, 15.0 ],
					"presentation" : 1,
					"presentation_rect" : [ 41.0, 52.401001, 36.0, 15.0 ],
					"saved_attribute_attributes" : 					{
						"valueof" : 						{
							"parameter_longname" : "gatepct[3]",
							"parameter_shortname" : "gatepct",
							"parameter_type" : 0,
							"parameter_mmax" : 3240.0,
							"parameter_initial" : [ 3240 ],
							"parameter_unitstyle" : 0,
							"parameter_defer" : 1
						}

					}
,
					"textcolor" : [ 0.094118, 0.117647, 0.137255, 1.0 ],
					"tricolor2" : [ 1.0, 1.0, 1.0, 0.301961 ],
					"varname" : "gatepct[2]"
				}

			}
, 			{
				"box" : 				{
					"fontname" : "Arial Bold",
					"fontsize" : 9.0,
					"id" : "obj-36",
					"maxclass" : "comment",
					"numinlets" : 1,
					"numoutlets" : 0,
					"patching_rect" : [ 157.0, 271.401001, 112.0, 17.0 ],
					"presentation" : 1,
					"presentation_rect" : [ 90.0, 34.401001, 112.0, 17.0 ],
					"style" : "",
					"text" : "neuron_getV_offset",
					"textcolor" : [ 0.862745, 0.870588, 0.878431, 1.0 ]
				}

			}
, 			{
				"box" : 				{
					"activebgcolor" : [ 1.0, 1.0, 1.0, 0.3 ],
					"activeslidercolor" : [ 0.278431, 0.839216, 1.0, 1.0 ],
					"activetricolor" : [ 0.278431, 0.839216, 1.0, 1.0 ],
					"activetricolor2" : [ 1.0, 1.0, 1.0, 0.301961 ],
					"annotation" : "",
					"appearance" : 1,
					"bordercolor" : [ 1.0, 1.0, 1.0, 0.3 ],
					"focusbordercolor" : [ 1.0, 1.0, 1.0, 0.3 ],
					"id" : "obj-37",
					"maxclass" : "live.numbox",
					"numinlets" : 1,
					"numoutlets" : 2,
					"outlettype" : [ "", "float" ],
					"parameter_enable" : 1,
					"patching_rect" : [ 108.0, 272.401001, 36.0, 15.0 ],
					"presentation" : 1,
					"presentation_rect" : [ 41.0, 35.401001, 36.0, 15.0 ],
					"saved_attribute_attributes" : 					{
						"valueof" : 						{
							"parameter_longname" : "gatepct[2]",
							"parameter_shortname" : "gatepct",
							"parameter_type" : 0,
							"parameter_mmin" : -1000.0,
							"parameter_mmax" : 1000.0,
							"parameter_initial" : [ 1.0 ],
							"parameter_unitstyle" : 0,
							"parameter_defer" : 1
						}

					}
,
					"textcolor" : [ 0.094118, 0.117647, 0.137255, 1.0 ],
					"tricolor2" : [ 1.0, 1.0, 1.0, 0.301961 ],
					"varname" : "gatepct[1]"
				}

			}
, 			{
				"box" : 				{
					"id" : "obj-35",
					"linecount" : 2,
					"maxclass" : "comment",
					"numinlets" : 1,
					"numoutlets" : 0,
					"patching_rect" : [ 766.0, 10.401001, 150.0, 33.0 ],
					"style" : "",
					"text" : "ISSUE => should be a type double "
				}

			}
, 			{
				"box" : 				{
					"fontname" : "Arial Bold",
					"fontsize" : 9.0,
					"id" : "obj-29",
					"maxclass" : "comment",
					"numinlets" : 1,
					"numoutlets" : 0,
					"patching_rect" : [ 636.0, 10.401001, 112.0, 17.0 ],
					"style" : "",
					"text" : "set_decay_rate",
					"textcolor" : [ 0.862745, 0.870588, 0.878431, 1.0 ]
				}

			}
, 			{
				"box" : 				{
					"activebgcolor" : [ 0.572549, 0.615686, 0.658824, 0.0 ],
					"activebgoncolor" : [ 0.278431, 0.839216, 1.0, 1.0 ],
					"activetextcolor" : [ 1.0, 1.0, 1.0, 0.57 ],
					"activetextoncolor" : [ 0.0, 0.019608, 0.078431, 1.0 ],
					"bgcolor" : [ 0.101961, 0.101961, 0.101961, 0.78 ],
					"bordercolor" : [ 0.0, 0.019608, 0.078431, 0.37 ],
					"id" : "obj-73",
					"maxclass" : "live.text",
					"mode" : 0,
					"numinlets" : 1,
					"numoutlets" : 2,
					"outlettype" : [ "", "" ],
					"parameter_enable" : 1,
					"patching_rect" : [ 63.0, 200.0, 40.0, 20.0 ],
					"presentation" : 1,
					"presentation_rect" : [ 15.0, 7.742615, 63.0, 14.764645 ],
					"saved_attribute_attributes" : 					{
						"valueof" : 						{
							"parameter_longname" : "Mute all",
							"parameter_shortname" : "Mute all",
							"parameter_type" : 2,
							"parameter_mmax" : 1.0,
							"parameter_enum" : [ "val1", "val2" ],
							"parameter_initial_enable" : 1,
							"parameter_initial" : [ 0.0 ],
							"parameter_defer" : 1
						}

					}
,
					"text" : "init",
					"textcolor" : [ 1.0, 1.0, 1.0, 1.0 ],
					"texton" : "on",
					"varname" : "init"
				}

			}
, 			{
				"box" : 				{
					"activebgcolor" : [ 0.572549, 0.615686, 0.658824, 0.0 ],
					"activebgoncolor" : [ 0.278431, 0.839216, 1.0, 1.0 ],
					"activetextcolor" : [ 1.0, 1.0, 1.0, 0.57 ],
					"activetextoncolor" : [ 0.0, 0.019608, 0.078431, 1.0 ],
					"bgcolor" : [ 0.101961, 0.101961, 0.101961, 0.78 ],
					"bordercolor" : [ 0.0, 0.019608, 0.078431, 0.37 ],
					"id" : "obj-28",
					"maxclass" : "live.text",
					"numinlets" : 1,
					"numoutlets" : 2,
					"outlettype" : [ "", "" ],
					"parameter_enable" : 1,
					"patching_rect" : [ 348.0, 867.0, 40.0, 20.0 ],
					"presentation" : 1,
					"presentation_rect" : [ 32.0, 189.518677, 45.0, 14.764645 ],
					"saved_attribute_attributes" : 					{
						"valueof" : 						{
							"parameter_longname" : "Legato",
							"parameter_shortname" : "Legato",
							"parameter_type" : 2,
							"parameter_mmax" : 1.0,
							"parameter_enum" : [ "val1", "val2" ],
							"parameter_initial_enable" : 1,
							"parameter_initial" : [ 1 ],
							"parameter_defer" : 1
						}

					}
,
					"text" : "stp",
					"textcolor" : [ 1.0, 1.0, 1.0, 1.0 ],
					"texton" : "stp",
					"varname" : "Legato"
				}

			}
, 			{
				"box" : 				{
					"activebgcolor" : [ 1.0, 1.0, 1.0, 0.3 ],
					"activeslidercolor" : [ 0.278431, 0.839216, 1.0, 1.0 ],
					"activetricolor" : [ 0.278431, 0.839216, 1.0, 1.0 ],
					"activetricolor2" : [ 1.0, 1.0, 1.0, 0.301961 ],
					"annotation" : "",
					"appearance" : 1,
					"bordercolor" : [ 1.0, 1.0, 1.0, 0.3 ],
					"focusbordercolor" : [ 1.0, 1.0, 1.0, 0.3 ],
					"id" : "obj-9",
					"maxclass" : "live.numbox",
					"numinlets" : 1,
					"numoutlets" : 2,
					"outlettype" : [ "", "float" ],
					"parameter_enable" : 1,
					"patching_rect" : [ 587.0, 11.401001, 36.0, 15.0 ],
					"saved_attribute_attributes" : 					{
						"valueof" : 						{
							"parameter_longname" : "gatepct[1]",
							"parameter_shortname" : "gatepct",
							"parameter_type" : 0,
							"parameter_mmax" : 100.0,
							"parameter_initial" : [ 1.0 ],
							"parameter_unitstyle" : 5,
							"parameter_defer" : 1
						}

					}
,
					"textcolor" : [ 0.094118, 0.117647, 0.137255, 1.0 ],
					"tricolor2" : [ 1.0, 1.0, 1.0, 0.301961 ],
					"varname" : "gatepct"
				}

			}
, 			{
				"box" : 				{
					"activebgcolor" : [ 0.0, 0.0, 0.0, 0.0 ],
					"annotation" : "Determines the rate at which a step advances. Set in terms of metric values (eg: 1/8 = 1/8th note) Swing is only available at 1/8, 1/16 and 1/32 values. ",
					"bordercolor" : [ 1.0, 1.0, 1.0, 0.2 ],
					"hltcolor" : [ 0.278431, 0.839216, 1.0, 1.0 ],
					"id" : "obj-96",
					"maxclass" : "live.menu",
					"numinlets" : 1,
					"numoutlets" : 3,
					"outlettype" : [ "", "", "float" ],
					"parameter_enable" : 1,
					"patching_rect" : [ 168.0, 407.260742, 71.944458, 15.0 ],
					"presentation" : 1,
					"presentation_rect" : [ 10.151497, 69.401001, 66.848503, 15.0 ],
					"saved_attribute_attributes" : 					{
						"valueof" : 						{
							"parameter_longname" : "Pulse[1]",
							"parameter_shortname" : "Pulse",
							"parameter_type" : 2,
							"parameter_enum" : [ "random", "sparse", "uniform", "grid" ],
							"parameter_initial_enable" : 1,
							"parameter_initial" : [ 4.0 ],
							"parameter_invisible" : 1
						}

					}
,
					"textcolor" : [ 1.0, 1.0, 1.0, 0.6 ],
					"varname" : "Pulse"
				}

			}
, 			{
				"box" : 				{
					"fontname" : "Arial Bold",
					"fontsize" : 9.0,
					"id" : "obj-27",
					"maxclass" : "comment",
					"numinlets" : 1,
					"numoutlets" : 0,
					"patching_rect" : [ 87.554688, 6.910889, 112.0, 17.0 ],
					"presentation" : 1,
					"presentation_rect" : [ 221.0, 8.742615, 54.0, 17.0 ],
					"style" : "",
					"text" : "SNN_OSC",
					"textcolor" : [ 1.0, 1.0, 1.0, 1.0 ]
				}

			}
, 			{
				"box" : 				{
					"id" : "obj-24",
					"maxclass" : "newobj",
					"numinlets" : 1,
					"numoutlets" : 1,
					"outlettype" : [ "" ],
					"patching_rect" : [ 63.0, 233.0, 105.0, 22.0 ],
					"style" : "",
					"text" : "prepend /SNN/init"
				}

			}
, 			{
				"box" : 				{
					"id" : "obj-21",
					"maxclass" : "newobj",
					"numinlets" : 1,
					"numoutlets" : 1,
					"outlettype" : [ "" ],
					"patching_rect" : [ 587.0, 36.0, 172.0, 22.0 ],
					"style" : "",
					"text" : "prepend /SNN/set_decay_rate"
				}

			}
, 			{
				"box" : 				{
					"id" : "obj-22",
					"maxclass" : "newobj",
					"numinlets" : 1,
					"numoutlets" : 1,
					"outlettype" : [ "" ],
					"patching_rect" : [ 378.0, 953.0, 161.0, 22.0 ],
					"style" : "",
					"text" : "prepend /SNN/set_stdp_flag"
				}

			}
, 			{
				"box" : 				{
					"id" : "obj-23",
					"maxclass" : "newobj",
					"numinlets" : 1,
					"numoutlets" : 1,
					"outlettype" : [ "" ],
					"patching_rect" : [ 348.0, 893.0, 155.0, 22.0 ],
					"style" : "",
					"text" : "prepend /SNN/set_stp_flag"
				}

			}
, 			{
				"box" : 				{
					"id" : "obj-20",
					"maxclass" : "newobj",
					"numinlets" : 1,
					"numoutlets" : 1,
					"outlettype" : [ "" ],
					"patching_rect" : [ 318.0, 833.0, 241.0, 22.0 ],
					"style" : "",
					"text" : "prepend /SNN/set_number_of_connections"
				}

			}
, 			{
				"box" : 				{
					"id" : "obj-19",
					"maxclass" : "newobj",
					"numinlets" : 1,
					"numoutlets" : 1,
					"outlettype" : [ "" ],
					"patching_rect" : [ 288.0, 768.0, 211.0, 22.0 ],
					"style" : "",
					"text" : "prepend /SNN/set_output_group_size"
				}

			}
, 			{
				"box" : 				{
					"id" : "obj-18",
					"maxclass" : "newobj",
					"numinlets" : 1,
					"numoutlets" : 1,
					"outlettype" : [ "" ],
					"patching_rect" : [ 258.0, 714.0, 204.0, 22.0 ],
					"style" : "",
					"text" : "prepend /SNN/set_input_group_size"
				}

			}
, 			{
				"box" : 				{
					"id" : "obj-17",
					"maxclass" : "newobj",
					"numinlets" : 1,
					"numoutlets" : 1,
					"outlettype" : [ "" ],
					"patching_rect" : [ 202.0, 509.0, 234.0, 22.0 ],
					"style" : "",
					"text" : "prepend /SNN/set_inhibitory_neuron_type"
				}

			}
, 			{
				"box" : 				{
					"id" : "obj-16",
					"maxclass" : "newobj",
					"numinlets" : 1,
					"numoutlets" : 1,
					"outlettype" : [ "" ],
					"patching_rect" : [ 168.0, 428.0, 184.0, 22.0 ],
					"style" : "",
					"text" : "prepend /SNN/set_network_type"
				}

			}
, 			{
				"box" : 				{
					"id" : "obj-15",
					"maxclass" : "newobj",
					"numinlets" : 1,
					"numoutlets" : 1,
					"outlettype" : [ "" ],
					"patching_rect" : [ 138.0, 368.0, 197.0, 22.0 ],
					"style" : "",
					"text" : "prepend /SNN/number_of_neurons"
				}

			}
, 			{
				"box" : 				{
					"id" : "obj-14",
					"maxclass" : "newobj",
					"numinlets" : 1,
					"numoutlets" : 1,
					"outlettype" : [ "" ],
					"patching_rect" : [ 108.0, 308.0, 194.0, 22.0 ],
					"style" : "",
					"text" : "prepend /SNN/neuron_getV_offset"
				}

			}
, 			{
				"box" : 				{
					"id" : "obj-13",
					"maxclass" : "newobj",
					"numinlets" : 1,
					"numoutlets" : 1,
					"outlettype" : [ "" ],
					"patching_rect" : [ 617.0, 585.0, 147.0, 22.0 ],
					"style" : "",
					"text" : "prepend /SNN/stimulation"
				}

			}
, 			{
				"box" : 				{
					"id" : "obj-10",
					"linecount" : 3,
					"maxclass" : "newobj",
					"numinlets" : 13,
					"numoutlets" : 13,
					"outlettype" : [ "", "", "", "", "", "", "", "", "", "", "", "", "" ],
					"patching_rect" : [ 63.0, 139.0, 559.0, 49.0 ],
					"style" : "",
					"text" : "route init neuron_getV_offset number_of_neurons set_network_type set_inhibitory_neuron_type set_excitatory_neuron_type set_input_group_size set_output_group_size set_number_of_connections set_stp_flag set_stdp_flag set_inhibitory_group_size"
				}

			}
, 			{
				"box" : 				{
					"id" : "obj-8",
					"maxclass" : "message",
					"numinlets" : 2,
					"numoutlets" : 1,
					"outlettype" : [ "" ],
					"patching_rect" : [ 294.0, 1124.0, 48.0, 22.0 ],
					"style" : "",
					"text" : "port $1"
				}

			}
, 			{
				"box" : 				{
					"id" : "obj-5",
					"maxclass" : "message",
					"numinlets" : 2,
					"numoutlets" : 1,
					"outlettype" : [ "" ],
					"patching_rect" : [ 362.0, 1124.0, 50.0, 22.0 ],
					"style" : "",
					"text" : "host $1"
				}

			}
, 			{
				"box" : 				{
					"comment" : "",
					"id" : "obj-3",
					"index" : 0,
					"maxclass" : "inlet",
					"numinlets" : 0,
					"numoutlets" : 1,
					"outlettype" : [ "" ],
					"patching_rect" : [ 63.0, 93.0, 30.0, 30.0 ],
					"style" : ""
				}

			}
, 			{
				"box" : 				{
					"id" : "obj-2",
					"maxclass" : "newobj",
					"numinlets" : 1,
					"numoutlets" : 0,
					"patching_rect" : [ 63.0, 1180.0, 136.0, 22.0 ],
					"style" : "",
					"text" : "udpsend localhost 7511"
				}

			}
, 			{
				"box" : 				{
					"angle" : 0.0,
					"background" : 1,
					"bgcolor" : [ 0.367404, 0.389405, 0.430238, 1.0 ],
					"id" : "obj-25",
					"maxclass" : "panel",
					"mode" : 0,
					"numinlets" : 1,
					"numoutlets" : 0,
					"patching_rect" : [ 26.852829, 10.033447, 37.0, 5.0 ],
					"presentation" : 1,
					"presentation_rect" : [ 2.949341, 4.3974, 286.550659, 222.003601 ],
					"proportion" : 0.39,
					"rounded" : 0,
					"style" : ""
				}

			}
, 			{
				"box" : 				{
					"angle" : 270.0,
					"background" : 1,
					"bgcolor" : [ 0.862745, 0.870588, 0.878431, 0.5 ],
					"border" : 2,
					"bordercolor" : [ 0.65098, 0.666667, 0.662745, 1.0 ],
					"id" : "obj-26",
					"maxclass" : "panel",
					"mode" : 0,
					"numinlets" : 1,
					"numoutlets" : 0,
					"patching_rect" : [ 4.0, 6.910889, 12.0, 188.0 ],
					"presentation" : 1,
					"presentation_rect" : [ -0.239624, 0.338165, 293.739624, 229.658203 ],
					"proportion" : 0.39,
					"style" : ""
				}

			}
 ],
		"lines" : [ 			{
				"patchline" : 				{
					"destination" : [ "obj-88", 0 ],
					"source" : [ "obj-1", 0 ]
				}

			}
, 			{
				"patchline" : 				{
					"destination" : [ "obj-28", 0 ],
					"source" : [ "obj-10", 9 ]
				}

			}
, 			{
				"patchline" : 				{
					"destination" : [ "obj-30", 0 ],
					"source" : [ "obj-10", 11 ]
				}

			}
, 			{
				"patchline" : 				{
					"destination" : [ "obj-32", 0 ],
					"source" : [ "obj-10", 4 ]
				}

			}
, 			{
				"patchline" : 				{
					"destination" : [ "obj-37", 0 ],
					"source" : [ "obj-10", 1 ]
				}

			}
, 			{
				"patchline" : 				{
					"destination" : [ "obj-39", 0 ],
					"source" : [ "obj-10", 2 ]
				}

			}
, 			{
				"patchline" : 				{
					"destination" : [ "obj-42", 0 ],
					"source" : [ "obj-10", 5 ]
				}

			}
, 			{
				"patchline" : 				{
					"destination" : [ "obj-57", 0 ],
					"source" : [ "obj-10", 6 ]
				}

			}
, 			{
				"patchline" : 				{
					"destination" : [ "obj-61", 0 ],
					"source" : [ "obj-10", 7 ]
				}

			}
, 			{
				"patchline" : 				{
					"destination" : [ "obj-63", 0 ],
					"source" : [ "obj-10", 8 ]
				}

			}
, 			{
				"patchline" : 				{
					"destination" : [ "obj-68", 0 ],
					"source" : [ "obj-10", 10 ]
				}

			}
, 			{
				"patchline" : 				{
					"destination" : [ "obj-73", 0 ],
					"source" : [ "obj-10", 0 ]
				}

			}
, 			{
				"patchline" : 				{
					"destination" : [ "obj-96", 0 ],
					"source" : [ "obj-10", 3 ]
				}

			}
, 			{
				"patchline" : 				{
					"destination" : [ "obj-30", 0 ],
					"source" : [ "obj-11", 0 ]
				}

			}
, 			{
				"patchline" : 				{
					"destination" : [ "obj-2", 0 ],
					"midpoints" : [ 626.5, 1005.0, 72.5, 1005.0 ],
					"source" : [ "obj-13", 0 ]
				}

			}
, 			{
				"patchline" : 				{
					"destination" : [ "obj-2", 0 ],
					"midpoints" : [ 117.5, 334.0, 72.5, 334.0 ],
					"source" : [ "obj-14", 0 ]
				}

			}
, 			{
				"patchline" : 				{
					"destination" : [ "obj-2", 0 ],
					"midpoints" : [ 147.5, 396.0, 72.5, 396.0 ],
					"source" : [ "obj-15", 0 ]
				}

			}
, 			{
				"patchline" : 				{
					"destination" : [ "obj-2", 0 ],
					"midpoints" : [ 177.5, 458.0, 72.5, 458.0 ],
					"source" : [ "obj-16", 0 ]
				}

			}
, 			{
				"patchline" : 				{
					"destination" : [ "obj-2", 0 ],
					"midpoints" : [ 211.5, 541.333313, 72.5, 541.333313 ],
					"source" : [ "obj-17", 0 ]
				}

			}
, 			{
				"patchline" : 				{
					"destination" : [ "obj-2", 0 ],
					"midpoints" : [ 267.5, 739.5, 72.5, 739.5 ],
					"source" : [ "obj-18", 0 ]
				}

			}
, 			{
				"patchline" : 				{
					"destination" : [ "obj-2", 0 ],
					"midpoints" : [ 297.5, 793.5, 72.5, 793.5 ],
					"source" : [ "obj-19", 0 ]
				}

			}
, 			{
				"patchline" : 				{
					"destination" : [ "obj-2", 0 ],
					"midpoints" : [ 327.5, 862.0, 72.5, 862.0 ],
					"source" : [ "obj-20", 0 ]
				}

			}
, 			{
				"patchline" : 				{
					"destination" : [ "obj-2", 0 ],
					"midpoints" : [ 387.5, 989.0, 72.5, 989.0 ],
					"source" : [ "obj-22", 0 ]
				}

			}
, 			{
				"patchline" : 				{
					"destination" : [ "obj-2", 0 ],
					"midpoints" : [ 357.5, 922.0, 72.5, 922.0 ],
					"source" : [ "obj-23", 0 ]
				}

			}
, 			{
				"patchline" : 				{
					"destination" : [ "obj-2", 0 ],
					"source" : [ "obj-24", 0 ]
				}

			}
, 			{
				"patchline" : 				{
					"destination" : [ "obj-23", 0 ],
					"source" : [ "obj-28", 0 ]
				}

			}
, 			{
				"patchline" : 				{
					"destination" : [ "obj-10", 0 ],
					"order" : 1,
					"source" : [ "obj-3", 0 ]
				}

			}
, 			{
				"patchline" : 				{
					"destination" : [ "obj-75", 0 ],
					"order" : 0,
					"source" : [ "obj-3", 0 ]
				}

			}
, 			{
				"patchline" : 				{
					"destination" : [ "obj-31", 0 ],
					"source" : [ "obj-30", 0 ]
				}

			}
, 			{
				"patchline" : 				{
					"destination" : [ "obj-2", 0 ],
					"midpoints" : [ 252.5, 679.0, 72.5, 679.0 ],
					"source" : [ "obj-31", 0 ]
				}

			}
, 			{
				"patchline" : 				{
					"destination" : [ "obj-50", 0 ],
					"source" : [ "obj-32", 0 ]
				}

			}
, 			{
				"patchline" : 				{
					"destination" : [ "obj-17", 0 ],
					"source" : [ "obj-33", 0 ]
				}

			}
, 			{
				"patchline" : 				{
					"destination" : [ "obj-55", 0 ],
					"source" : [ "obj-34", 0 ]
				}

			}
, 			{
				"patchline" : 				{
					"destination" : [ "obj-45", 0 ],
					"source" : [ "obj-37", 0 ]
				}

			}
, 			{
				"patchline" : 				{
					"destination" : [ "obj-46", 0 ],
					"source" : [ "obj-39", 0 ]
				}

			}
, 			{
				"patchline" : 				{
					"destination" : [ "obj-57", 0 ],
					"source" : [ "obj-4", 0 ]
				}

			}
, 			{
				"patchline" : 				{
					"destination" : [ "obj-39", 0 ],
					"source" : [ "obj-40", 0 ]
				}

			}
, 			{
				"patchline" : 				{
					"destination" : [ "obj-54", 0 ],
					"source" : [ "obj-42", 0 ]
				}

			}
, 			{
				"patchline" : 				{
					"destination" : [ "obj-96", 0 ],
					"source" : [ "obj-44", 0 ]
				}

			}
, 			{
				"patchline" : 				{
					"destination" : [ "obj-14", 0 ],
					"source" : [ "obj-45", 0 ]
				}

			}
, 			{
				"patchline" : 				{
					"destination" : [ "obj-15", 0 ],
					"source" : [ "obj-46", 0 ]
				}

			}
, 			{
				"patchline" : 				{
					"destination" : [ "obj-18", 0 ],
					"source" : [ "obj-47", 0 ]
				}

			}
, 			{
				"patchline" : 				{
					"destination" : [ "obj-50", 0 ],
					"source" : [ "obj-48", 0 ]
				}

			}
, 			{
				"patchline" : 				{
					"destination" : [ "obj-2", 0 ],
					"source" : [ "obj-5", 0 ]
				}

			}
, 			{
				"patchline" : 				{
					"destination" : [ "obj-33", 0 ],
					"source" : [ "obj-50", 0 ]
				}

			}
, 			{
				"patchline" : 				{
					"destination" : [ "obj-19", 0 ],
					"source" : [ "obj-51", 0 ]
				}

			}
, 			{
				"patchline" : 				{
					"destination" : [ "obj-54", 0 ],
					"source" : [ "obj-52", 0 ]
				}

			}
, 			{
				"patchline" : 				{
					"destination" : [ "obj-34", 0 ],
					"source" : [ "obj-54", 0 ]
				}

			}
, 			{
				"patchline" : 				{
					"destination" : [ "obj-2", 0 ],
					"midpoints" : [ 241.5, 622.0, 72.5, 622.0 ],
					"source" : [ "obj-55", 0 ]
				}

			}
, 			{
				"patchline" : 				{
					"destination" : [ "obj-47", 0 ],
					"source" : [ "obj-57", 0 ]
				}

			}
, 			{
				"patchline" : 				{
					"destination" : [ "obj-20", 0 ],
					"source" : [ "obj-58", 0 ]
				}

			}
, 			{
				"patchline" : 				{
					"destination" : [ "obj-8", 0 ],
					"source" : [ "obj-59", 0 ]
				}

			}
, 			{
				"patchline" : 				{
					"destination" : [ "obj-61", 0 ],
					"source" : [ "obj-6", 0 ]
				}

			}
, 			{
				"patchline" : 				{
					"destination" : [ "obj-51", 0 ],
					"source" : [ "obj-61", 0 ]
				}

			}
, 			{
				"patchline" : 				{
					"destination" : [ "obj-58", 0 ],
					"source" : [ "obj-63", 0 ]
				}

			}
, 			{
				"patchline" : 				{
					"destination" : [ "obj-22", 0 ],
					"source" : [ "obj-68", 0 ]
				}

			}
, 			{
				"patchline" : 				{
					"destination" : [ "obj-28", 0 ],
					"source" : [ "obj-69", 0 ]
				}

			}
, 			{
				"patchline" : 				{
					"destination" : [ "obj-63", 0 ],
					"source" : [ "obj-7", 0 ]
				}

			}
, 			{
				"patchline" : 				{
					"destination" : [ "obj-68", 0 ],
					"source" : [ "obj-70", 0 ]
				}

			}
, 			{
				"patchline" : 				{
					"destination" : [ "obj-24", 0 ],
					"source" : [ "obj-73", 0 ]
				}

			}
, 			{
				"patchline" : 				{
					"destination" : [ "obj-13", 0 ],
					"order" : 1,
					"source" : [ "obj-75", 0 ]
				}

			}
, 			{
				"patchline" : 				{
					"destination" : [ "obj-77", 0 ],
					"order" : 0,
					"source" : [ "obj-75", 0 ]
				}

			}
, 			{
				"patchline" : 				{
					"destination" : [ "obj-76", 0 ],
					"source" : [ "obj-77", 0 ]
				}

			}
, 			{
				"patchline" : 				{
					"destination" : [ "obj-78", 0 ],
					"source" : [ "obj-77", 1 ]
				}

			}
, 			{
				"patchline" : 				{
					"destination" : [ "obj-79", 0 ],
					"source" : [ "obj-77", 2 ]
				}

			}
, 			{
				"patchline" : 				{
					"destination" : [ "obj-80", 0 ],
					"source" : [ "obj-77", 5 ]
				}

			}
, 			{
				"patchline" : 				{
					"destination" : [ "obj-81", 0 ],
					"source" : [ "obj-77", 4 ]
				}

			}
, 			{
				"patchline" : 				{
					"destination" : [ "obj-82", 0 ],
					"source" : [ "obj-77", 3 ]
				}

			}
, 			{
				"patchline" : 				{
					"destination" : [ "obj-83", 0 ],
					"source" : [ "obj-77", 8 ]
				}

			}
, 			{
				"patchline" : 				{
					"destination" : [ "obj-84", 0 ],
					"source" : [ "obj-77", 7 ]
				}

			}
, 			{
				"patchline" : 				{
					"destination" : [ "obj-85", 0 ],
					"source" : [ "obj-77", 6 ]
				}

			}
, 			{
				"patchline" : 				{
					"destination" : [ "obj-86", 0 ],
					"source" : [ "obj-77", 9 ]
				}

			}
, 			{
				"patchline" : 				{
					"destination" : [ "obj-2", 0 ],
					"source" : [ "obj-8", 0 ]
				}

			}
, 			{
				"patchline" : 				{
					"destination" : [ "obj-5", 0 ],
					"source" : [ "obj-88", 1 ]
				}

			}
, 			{
				"patchline" : 				{
					"destination" : [ "obj-95", 0 ],
					"source" : [ "obj-88", 0 ]
				}

			}
, 			{
				"patchline" : 				{
					"destination" : [ "obj-95", 0 ],
					"source" : [ "obj-93", 0 ]
				}

			}
, 			{
				"patchline" : 				{
					"destination" : [ "obj-59", 0 ],
					"source" : [ "obj-95", 0 ]
				}

			}
, 			{
				"patchline" : 				{
					"destination" : [ "obj-16", 0 ],
					"source" : [ "obj-96", 0 ]
				}

			}
 ],
		"parameters" : 		{
			"obj-83" : [ "gatepct[13]", "gatepct", 0 ],
			"obj-76" : [ "gatepct[7]", "gatepct", 0 ],
			"obj-37" : [ "gatepct[2]", "gatepct", 0 ],
			"obj-68" : [ "Legato[1]", "Legato", 0 ],
			"obj-54" : [ "Pulse[3]", "Pulse", 0 ],
			"obj-96" : [ "Pulse[1]", "Pulse", 0 ],
			"obj-81" : [ "gatepct[11]", "gatepct", 0 ],
			"obj-84" : [ "gatepct[14]", "gatepct", 0 ],
			"obj-86" : [ "gatepct[16]", "gatepct", 0 ],
			"obj-82" : [ "gatepct[12]", "gatepct", 0 ],
			"obj-85" : [ "gatepct[15]", "gatepct", 0 ],
			"obj-61" : [ "gatepct[5]", "gatepct", 0 ],
			"obj-78" : [ "gatepct[8]", "gatepct", 0 ],
			"obj-9" : [ "gatepct[1]", "gatepct", 0 ],
			"obj-80" : [ "gatepct[10]", "gatepct", 0 ],
			"obj-73" : [ "Mute all", "Mute all", 0 ],
			"obj-63" : [ "gatepct[6]", "gatepct", 0 ],
			"obj-50" : [ "Pulse[2]", "Pulse", 0 ],
			"obj-28" : [ "Legato", "Legato", 0 ],
			"obj-79" : [ "gatepct[9]", "gatepct", 0 ],
			"obj-39" : [ "gatepct[3]", "gatepct", 0 ],
			"obj-95" : [ "gatepct[18]", "gatepct", 0 ],
			"obj-57" : [ "gatepct[4]", "gatepct", 0 ],
			"obj-30" : [ "gatepct[19]", "gatepct", 0 ]
		}
,
		"dependency_cache" : [  ],
		"autosave" : 0,
		"styles" : [ 			{
				"name" : "AudioStatus_Menu",
				"default" : 				{
					"bgfillcolor" : 					{
						"type" : "color",
						"color" : [ 0.294118, 0.313726, 0.337255, 1 ],
						"color1" : [ 0.454902, 0.462745, 0.482353, 0.0 ],
						"color2" : [ 0.290196, 0.309804, 0.301961, 1.0 ],
						"angle" : 270.0,
						"proportion" : 0.39,
						"autogradient" : 0
					}

				}
,
				"parentstyle" : "",
				"multi" : 0
			}
 ]
	}

}
