{
	"patcher" : 	{
		"fileversion" : 1,
		"appversion" : 		{
			"major" : 7,
			"minor" : 3,
			"revision" : 4,
			"architecture" : "x86",
			"modernui" : 1
		}
,
		"rect" : [ 84.0, 129.0, 1086.0, 810.0 ],
		"bglocked" : 0,
		"openinpresentation" : 1,
		"default_fontsize" : 12.0,
		"default_fontface" : 0,
		"default_fontname" : "Arial",
		"gridonopen" : 1,
		"gridsize" : [ 15.0, 15.0 ],
		"gridsnaponopen" : 1,
		"objectsnaponopen" : 1,
		"statusbarvisible" : 2,
		"toolbarvisible" : 1,
		"lefttoolbarpinned" : 0,
		"toptoolbarpinned" : 0,
		"righttoolbarpinned" : 0,
		"bottomtoolbarpinned" : 0,
		"toolbars_unpinned_last_save" : 0,
		"tallnewobj" : 0,
		"boxanimatetime" : 200,
		"enablehscroll" : 1,
		"enablevscroll" : 1,
		"devicewidth" : 0.0,
		"description" : "",
		"digest" : "",
		"tags" : "",
		"style" : "",
		"subpatcher_template" : "",
		"boxes" : [ 			{
				"box" : 				{
					"id" : "obj-41",
					"maxclass" : "newobj",
					"numinlets" : 7,
					"numoutlets" : 7,
					"outlettype" : [ "", "", "", "", "", "", "" ],
					"patcher" : 					{
						"fileversion" : 1,
						"appversion" : 						{
							"major" : 7,
							"minor" : 3,
							"revision" : 4,
							"architecture" : "x86",
							"modernui" : 1
						}
,
						"rect" : [ 698.0, 101.0, 640.0, 480.0 ],
						"bglocked" : 0,
						"openinpresentation" : 0,
						"default_fontsize" : 12.0,
						"default_fontface" : 0,
						"default_fontname" : "Arial",
						"gridonopen" : 1,
						"gridsize" : [ 15.0, 15.0 ],
						"gridsnaponopen" : 1,
						"objectsnaponopen" : 1,
						"statusbarvisible" : 2,
						"toolbarvisible" : 1,
						"lefttoolbarpinned" : 0,
						"toptoolbarpinned" : 0,
						"righttoolbarpinned" : 0,
						"bottomtoolbarpinned" : 0,
						"toolbars_unpinned_last_save" : 0,
						"tallnewobj" : 0,
						"boxanimatetime" : 200,
						"enablehscroll" : 1,
						"enablevscroll" : 1,
						"devicewidth" : 0.0,
						"description" : "",
						"digest" : "",
						"tags" : "",
						"style" : "",
						"subpatcher_template" : "",
						"boxes" : [ 							{
								"box" : 								{
									"id" : "obj-30",
									"maxclass" : "newobj",
									"numinlets" : 1,
									"numoutlets" : 1,
									"outlettype" : [ "bang" ],
									"patching_rect" : [ 51.0, 43.0, 60.0, 22.0 ],
									"style" : "",
									"text" : "loadbang"
								}

							}
, 							{
								"box" : 								{
									"comment" : "",
									"id" : "obj-26",
									"index" : 7,
									"maxclass" : "outlet",
									"numinlets" : 1,
									"numoutlets" : 0,
									"patching_rect" : [ 480.0, 248.0, 30.0, 30.0 ],
									"style" : ""
								}

							}
, 							{
								"box" : 								{
									"comment" : "",
									"id" : "obj-27",
									"index" : 7,
									"maxclass" : "inlet",
									"numinlets" : 0,
									"numoutlets" : 1,
									"outlettype" : [ "" ],
									"patching_rect" : [ 480.0, 35.0, 30.0, 30.0 ],
									"style" : ""
								}

							}
, 							{
								"box" : 								{
									"id" : "obj-28",
									"maxclass" : "newobj",
									"numinlets" : 2,
									"numoutlets" : 1,
									"outlettype" : [ "float" ],
									"patching_rect" : [ 480.0, 120.0, 29.5, 22.0 ],
									"style" : "",
									"text" : "* 3."
								}

							}
, 							{
								"box" : 								{
									"id" : "obj-29",
									"maxclass" : "newobj",
									"numinlets" : 3,
									"numoutlets" : 1,
									"outlettype" : [ "" ],
									"patching_rect" : [ 480.0, 150.0, 55.0, 22.0 ],
									"style" : "",
									"text" : "clip 0. 1."
								}

							}
, 							{
								"box" : 								{
									"comment" : "",
									"id" : "obj-22",
									"index" : 6,
									"maxclass" : "outlet",
									"numinlets" : 1,
									"numoutlets" : 0,
									"patching_rect" : [ 420.0, 248.0, 30.0, 30.0 ],
									"style" : ""
								}

							}
, 							{
								"box" : 								{
									"comment" : "",
									"id" : "obj-23",
									"index" : 6,
									"maxclass" : "inlet",
									"numinlets" : 0,
									"numoutlets" : 1,
									"outlettype" : [ "" ],
									"patching_rect" : [ 420.0, 35.0, 30.0, 30.0 ],
									"style" : ""
								}

							}
, 							{
								"box" : 								{
									"id" : "obj-24",
									"maxclass" : "newobj",
									"numinlets" : 2,
									"numoutlets" : 1,
									"outlettype" : [ "float" ],
									"patching_rect" : [ 420.0, 120.0, 29.5, 22.0 ],
									"style" : "",
									"text" : "* 3."
								}

							}
, 							{
								"box" : 								{
									"id" : "obj-25",
									"maxclass" : "newobj",
									"numinlets" : 3,
									"numoutlets" : 1,
									"outlettype" : [ "" ],
									"patching_rect" : [ 420.0, 150.0, 55.0, 22.0 ],
									"style" : "",
									"text" : "clip 0. 1."
								}

							}
, 							{
								"box" : 								{
									"comment" : "",
									"id" : "obj-18",
									"index" : 5,
									"maxclass" : "outlet",
									"numinlets" : 1,
									"numoutlets" : 0,
									"patching_rect" : [ 360.0, 248.0, 30.0, 30.0 ],
									"style" : ""
								}

							}
, 							{
								"box" : 								{
									"comment" : "",
									"id" : "obj-19",
									"index" : 5,
									"maxclass" : "inlet",
									"numinlets" : 0,
									"numoutlets" : 1,
									"outlettype" : [ "" ],
									"patching_rect" : [ 360.0, 35.0, 30.0, 30.0 ],
									"style" : ""
								}

							}
, 							{
								"box" : 								{
									"id" : "obj-20",
									"maxclass" : "newobj",
									"numinlets" : 2,
									"numoutlets" : 1,
									"outlettype" : [ "float" ],
									"patching_rect" : [ 360.0, 120.0, 29.5, 22.0 ],
									"style" : "",
									"text" : "* 3."
								}

							}
, 							{
								"box" : 								{
									"id" : "obj-21",
									"maxclass" : "newobj",
									"numinlets" : 3,
									"numoutlets" : 1,
									"outlettype" : [ "" ],
									"patching_rect" : [ 360.0, 150.0, 55.0, 22.0 ],
									"style" : "",
									"text" : "clip 0. 1."
								}

							}
, 							{
								"box" : 								{
									"comment" : "",
									"id" : "obj-14",
									"index" : 4,
									"maxclass" : "outlet",
									"numinlets" : 1,
									"numoutlets" : 0,
									"patching_rect" : [ 300.0, 248.0, 30.0, 30.0 ],
									"style" : ""
								}

							}
, 							{
								"box" : 								{
									"comment" : "",
									"id" : "obj-15",
									"index" : 4,
									"maxclass" : "inlet",
									"numinlets" : 0,
									"numoutlets" : 1,
									"outlettype" : [ "" ],
									"patching_rect" : [ 300.0, 35.0, 30.0, 30.0 ],
									"style" : ""
								}

							}
, 							{
								"box" : 								{
									"id" : "obj-16",
									"maxclass" : "newobj",
									"numinlets" : 2,
									"numoutlets" : 1,
									"outlettype" : [ "float" ],
									"patching_rect" : [ 300.0, 120.0, 29.5, 22.0 ],
									"style" : "",
									"text" : "* 3."
								}

							}
, 							{
								"box" : 								{
									"id" : "obj-17",
									"maxclass" : "newobj",
									"numinlets" : 3,
									"numoutlets" : 1,
									"outlettype" : [ "" ],
									"patching_rect" : [ 300.0, 150.0, 55.0, 22.0 ],
									"style" : "",
									"text" : "clip 0. 1."
								}

							}
, 							{
								"box" : 								{
									"comment" : "",
									"id" : "obj-10",
									"index" : 3,
									"maxclass" : "outlet",
									"numinlets" : 1,
									"numoutlets" : 0,
									"patching_rect" : [ 240.0, 248.0, 30.0, 30.0 ],
									"style" : ""
								}

							}
, 							{
								"box" : 								{
									"comment" : "",
									"id" : "obj-11",
									"index" : 3,
									"maxclass" : "inlet",
									"numinlets" : 0,
									"numoutlets" : 1,
									"outlettype" : [ "" ],
									"patching_rect" : [ 240.0, 35.0, 30.0, 30.0 ],
									"style" : ""
								}

							}
, 							{
								"box" : 								{
									"id" : "obj-12",
									"maxclass" : "newobj",
									"numinlets" : 2,
									"numoutlets" : 1,
									"outlettype" : [ "float" ],
									"patching_rect" : [ 240.0, 120.0, 29.5, 22.0 ],
									"style" : "",
									"text" : "* 3."
								}

							}
, 							{
								"box" : 								{
									"id" : "obj-13",
									"maxclass" : "newobj",
									"numinlets" : 3,
									"numoutlets" : 1,
									"outlettype" : [ "" ],
									"patching_rect" : [ 240.0, 150.0, 55.0, 22.0 ],
									"style" : "",
									"text" : "clip 0. 1."
								}

							}
, 							{
								"box" : 								{
									"comment" : "",
									"id" : "obj-6",
									"index" : 2,
									"maxclass" : "outlet",
									"numinlets" : 1,
									"numoutlets" : 0,
									"patching_rect" : [ 180.0, 248.0, 30.0, 30.0 ],
									"style" : ""
								}

							}
, 							{
								"box" : 								{
									"comment" : "",
									"id" : "obj-7",
									"index" : 2,
									"maxclass" : "inlet",
									"numinlets" : 0,
									"numoutlets" : 1,
									"outlettype" : [ "" ],
									"patching_rect" : [ 180.0, 35.0, 30.0, 30.0 ],
									"style" : ""
								}

							}
, 							{
								"box" : 								{
									"id" : "obj-8",
									"maxclass" : "newobj",
									"numinlets" : 2,
									"numoutlets" : 1,
									"outlettype" : [ "float" ],
									"patching_rect" : [ 180.0, 120.0, 29.5, 22.0 ],
									"style" : "",
									"text" : "* 3."
								}

							}
, 							{
								"box" : 								{
									"id" : "obj-9",
									"maxclass" : "newobj",
									"numinlets" : 3,
									"numoutlets" : 1,
									"outlettype" : [ "" ],
									"patching_rect" : [ 180.0, 150.0, 55.0, 22.0 ],
									"style" : "",
									"text" : "clip 0. 1."
								}

							}
, 							{
								"box" : 								{
									"comment" : "",
									"id" : "obj-5",
									"index" : 1,
									"maxclass" : "outlet",
									"numinlets" : 1,
									"numoutlets" : 0,
									"patching_rect" : [ 120.0, 248.0, 30.0, 30.0 ],
									"style" : ""
								}

							}
, 							{
								"box" : 								{
									"comment" : "",
									"id" : "obj-3",
									"index" : 1,
									"maxclass" : "inlet",
									"numinlets" : 0,
									"numoutlets" : 1,
									"outlettype" : [ "" ],
									"patching_rect" : [ 120.0, 35.0, 30.0, 30.0 ],
									"style" : ""
								}

							}
, 							{
								"box" : 								{
									"id" : "obj-2",
									"maxclass" : "message",
									"numinlets" : 2,
									"numoutlets" : 1,
									"outlettype" : [ "" ],
									"patching_rect" : [ 51.0, 72.0, 29.5, 22.0 ],
									"style" : "",
									"text" : "3."
								}

							}
, 							{
								"box" : 								{
									"id" : "obj-40",
									"maxclass" : "newobj",
									"numinlets" : 2,
									"numoutlets" : 1,
									"outlettype" : [ "float" ],
									"patching_rect" : [ 120.0, 120.0, 29.5, 22.0 ],
									"style" : "",
									"text" : "* 3."
								}

							}
, 							{
								"box" : 								{
									"id" : "obj-39",
									"maxclass" : "newobj",
									"numinlets" : 3,
									"numoutlets" : 1,
									"outlettype" : [ "" ],
									"patching_rect" : [ 120.0, 150.0, 55.0, 22.0 ],
									"style" : "",
									"text" : "clip 0. 1."
								}

							}
 ],
						"lines" : [ 							{
								"patchline" : 								{
									"destination" : [ "obj-12", 0 ],
									"source" : [ "obj-11", 0 ]
								}

							}
, 							{
								"patchline" : 								{
									"destination" : [ "obj-13", 0 ],
									"source" : [ "obj-12", 0 ]
								}

							}
, 							{
								"patchline" : 								{
									"destination" : [ "obj-10", 0 ],
									"source" : [ "obj-13", 0 ]
								}

							}
, 							{
								"patchline" : 								{
									"destination" : [ "obj-16", 0 ],
									"source" : [ "obj-15", 0 ]
								}

							}
, 							{
								"patchline" : 								{
									"destination" : [ "obj-17", 0 ],
									"source" : [ "obj-16", 0 ]
								}

							}
, 							{
								"patchline" : 								{
									"destination" : [ "obj-14", 0 ],
									"source" : [ "obj-17", 0 ]
								}

							}
, 							{
								"patchline" : 								{
									"destination" : [ "obj-20", 0 ],
									"source" : [ "obj-19", 0 ]
								}

							}
, 							{
								"patchline" : 								{
									"destination" : [ "obj-12", 1 ],
									"order" : 4,
									"source" : [ "obj-2", 0 ]
								}

							}
, 							{
								"patchline" : 								{
									"destination" : [ "obj-16", 1 ],
									"order" : 3,
									"source" : [ "obj-2", 0 ]
								}

							}
, 							{
								"patchline" : 								{
									"destination" : [ "obj-20", 1 ],
									"order" : 2,
									"source" : [ "obj-2", 0 ]
								}

							}
, 							{
								"patchline" : 								{
									"destination" : [ "obj-24", 1 ],
									"order" : 1,
									"source" : [ "obj-2", 0 ]
								}

							}
, 							{
								"patchline" : 								{
									"destination" : [ "obj-28", 1 ],
									"order" : 0,
									"source" : [ "obj-2", 0 ]
								}

							}
, 							{
								"patchline" : 								{
									"destination" : [ "obj-40", 1 ],
									"order" : 6,
									"source" : [ "obj-2", 0 ]
								}

							}
, 							{
								"patchline" : 								{
									"destination" : [ "obj-8", 1 ],
									"order" : 5,
									"source" : [ "obj-2", 0 ]
								}

							}
, 							{
								"patchline" : 								{
									"destination" : [ "obj-21", 0 ],
									"source" : [ "obj-20", 0 ]
								}

							}
, 							{
								"patchline" : 								{
									"destination" : [ "obj-18", 0 ],
									"source" : [ "obj-21", 0 ]
								}

							}
, 							{
								"patchline" : 								{
									"destination" : [ "obj-24", 0 ],
									"source" : [ "obj-23", 0 ]
								}

							}
, 							{
								"patchline" : 								{
									"destination" : [ "obj-25", 0 ],
									"source" : [ "obj-24", 0 ]
								}

							}
, 							{
								"patchline" : 								{
									"destination" : [ "obj-22", 0 ],
									"source" : [ "obj-25", 0 ]
								}

							}
, 							{
								"patchline" : 								{
									"destination" : [ "obj-28", 0 ],
									"source" : [ "obj-27", 0 ]
								}

							}
, 							{
								"patchline" : 								{
									"destination" : [ "obj-29", 0 ],
									"source" : [ "obj-28", 0 ]
								}

							}
, 							{
								"patchline" : 								{
									"destination" : [ "obj-26", 0 ],
									"source" : [ "obj-29", 0 ]
								}

							}
, 							{
								"patchline" : 								{
									"destination" : [ "obj-40", 0 ],
									"source" : [ "obj-3", 0 ]
								}

							}
, 							{
								"patchline" : 								{
									"destination" : [ "obj-2", 0 ],
									"source" : [ "obj-30", 0 ]
								}

							}
, 							{
								"patchline" : 								{
									"destination" : [ "obj-5", 0 ],
									"source" : [ "obj-39", 0 ]
								}

							}
, 							{
								"patchline" : 								{
									"destination" : [ "obj-39", 0 ],
									"source" : [ "obj-40", 0 ]
								}

							}
, 							{
								"patchline" : 								{
									"destination" : [ "obj-8", 0 ],
									"source" : [ "obj-7", 0 ]
								}

							}
, 							{
								"patchline" : 								{
									"destination" : [ "obj-9", 0 ],
									"source" : [ "obj-8", 0 ]
								}

							}
, 							{
								"patchline" : 								{
									"destination" : [ "obj-6", 0 ],
									"source" : [ "obj-9", 0 ]
								}

							}
 ],
						"styles" : [ 							{
								"name" : "AudioStatus_Menu",
								"default" : 								{
									"bgfillcolor" : 									{
										"type" : "color",
										"color" : [ 0.294118, 0.313726, 0.337255, 1 ],
										"color1" : [ 0.454902, 0.462745, 0.482353, 0.0 ],
										"color2" : [ 0.290196, 0.309804, 0.301961, 1.0 ],
										"angle" : 270.0,
										"proportion" : 0.39,
										"autogradient" : 0
									}

								}
,
								"parentstyle" : "",
								"multi" : 0
							}
 ]
					}
,
					"patching_rect" : [ 128.0, 278.0, 199.0, 22.0 ],
					"saved_object_attributes" : 					{
						"description" : "",
						"digest" : "",
						"globalpatchername" : "",
						"style" : "",
						"tags" : ""
					}
,
					"style" : "",
					"text" : "p map"
				}

			}
, 			{
				"box" : 				{
					"fontname" : "Arial Bold",
					"fontsize" : 9.0,
					"id" : "obj-34",
					"maxclass" : "comment",
					"numinlets" : 1,
					"numoutlets" : 0,
					"patching_rect" : [ 765.5, 459.0, 91.0, 17.0 ],
					"presentation" : 1,
					"presentation_rect" : [ 78.0, 25.742615, 128.0, 17.0 ],
					"style" : "",
					"text" : "presenceStanDev",
					"textcolor" : [ 0.862745, 0.870588, 0.878431, 1.0 ]
				}

			}
, 			{
				"box" : 				{
					"id" : "obj-35",
					"maxclass" : "newobj",
					"numinlets" : 1,
					"numoutlets" : 0,
					"patching_rect" : [ 688.0, 438.0, 141.0, 22.0 ],
					"style" : "",
					"text" : "s presenceStanDev_60s"
				}

			}
, 			{
				"box" : 				{
					"fontname" : "Arial Bold",
					"fontsize" : 9.0,
					"id" : "obj-36",
					"maxclass" : "comment",
					"numinlets" : 1,
					"numoutlets" : 0,
					"patching_rect" : [ 735.0, 413.0, 193.0, 17.0 ],
					"presentation" : 1,
					"presentation_rect" : [ 116.0, 41.3992, 97.0, 17.0 ],
					"style" : "",
					"text" : "60s",
					"textcolor" : [ 0.862745, 0.870588, 0.878431, 1.0 ]
				}

			}
, 			{
				"box" : 				{
					"activebgcolor" : [ 1.0, 1.0, 1.0, 0.3 ],
					"activeslidercolor" : [ 0.278431, 0.839216, 1.0, 1.0 ],
					"activetricolor" : [ 0.278431, 0.839216, 1.0, 1.0 ],
					"activetricolor2" : [ 1.0, 1.0, 1.0, 0.301961 ],
					"annotation" : "",
					"appearance" : 1,
					"bordercolor" : [ 1.0, 1.0, 1.0, 0.3 ],
					"focusbordercolor" : [ 1.0, 1.0, 1.0, 0.3 ],
					"id" : "obj-37",
					"maxclass" : "live.numbox",
					"numinlets" : 1,
					"numoutlets" : 2,
					"outlettype" : [ "", "float" ],
					"parameter_enable" : 1,
					"patching_rect" : [ 688.0, 413.0, 36.0, 15.0 ],
					"presentation" : 1,
					"presentation_rect" : [ 80.0, 41.3992, 36.0, 15.0 ],
					"saved_attribute_attributes" : 					{
						"valueof" : 						{
							"parameter_longname" : "gatepct[9]",
							"parameter_shortname" : "gatepct",
							"parameter_type" : 0,
							"parameter_mmin" : -727379968.0,
							"parameter_mmax" : 1215752192.0,
							"parameter_initial" : [ 1.0 ],
							"parameter_unitstyle" : 1,
							"parameter_defer" : 1
						}

					}
,
					"textcolor" : [ 0.094118, 0.117647, 0.137255, 1.0 ],
					"tricolor2" : [ 1.0, 1.0, 1.0, 0.301961 ],
					"varname" : "gatepct[9]"
				}

			}
, 			{
				"box" : 				{
					"id" : "obj-38",
					"maxclass" : "newobj",
					"numinlets" : 2,
					"numoutlets" : 2,
					"outlettype" : [ "", "" ],
					"patching_rect" : [ 688.0, 369.0, 58.0, 22.0 ],
					"style" : "",
					"text" : "route /60"
				}

			}
, 			{
				"box" : 				{
					"fontname" : "Arial Bold",
					"fontsize" : 9.0,
					"id" : "obj-33",
					"maxclass" : "comment",
					"numinlets" : 1,
					"numoutlets" : 0,
					"patching_rect" : [ 485.5, 323.0, 91.0, 17.0 ],
					"presentation" : 1,
					"presentation_rect" : [ 89.0, 71.742615, 128.0, 17.0 ],
					"style" : "",
					"text" : "FLOW",
					"textcolor" : [ 0.862745, 0.870588, 0.878431, 1.0 ]
				}

			}
, 			{
				"box" : 				{
					"id" : "obj-30",
					"maxclass" : "newobj",
					"numinlets" : 1,
					"numoutlets" : 0,
					"patching_rect" : [ 408.0, 318.0, 61.0, 22.0 ],
					"style" : "",
					"text" : "s flow_1s"
				}

			}
, 			{
				"box" : 				{
					"fontname" : "Arial Bold",
					"fontsize" : 9.0,
					"id" : "obj-31",
					"maxclass" : "comment",
					"numinlets" : 1,
					"numoutlets" : 0,
					"patching_rect" : [ 456.0, 292.0, 193.0, 17.0 ],
					"presentation" : 1,
					"presentation_rect" : [ 127.0, 87.3992, 97.0, 17.0 ],
					"style" : "",
					"text" : "1s",
					"textcolor" : [ 0.862745, 0.870588, 0.878431, 1.0 ]
				}

			}
, 			{
				"box" : 				{
					"activebgcolor" : [ 1.0, 1.0, 1.0, 0.3 ],
					"activeslidercolor" : [ 0.278431, 0.839216, 1.0, 1.0 ],
					"activetricolor" : [ 0.278431, 0.839216, 1.0, 1.0 ],
					"activetricolor2" : [ 1.0, 1.0, 1.0, 0.301961 ],
					"annotation" : "",
					"appearance" : 1,
					"bordercolor" : [ 1.0, 1.0, 1.0, 0.3 ],
					"focusbordercolor" : [ 1.0, 1.0, 1.0, 0.3 ],
					"id" : "obj-32",
					"maxclass" : "live.numbox",
					"numinlets" : 1,
					"numoutlets" : 2,
					"outlettype" : [ "", "float" ],
					"parameter_enable" : 1,
					"patching_rect" : [ 408.0, 292.0, 36.0, 15.0 ],
					"presentation" : 1,
					"presentation_rect" : [ 91.0, 87.3992, 36.0, 15.0 ],
					"saved_attribute_attributes" : 					{
						"valueof" : 						{
							"parameter_longname" : "gatepct[5]",
							"parameter_shortname" : "gatepct",
							"parameter_type" : 0,
							"parameter_mmin" : -727379968.0,
							"parameter_mmax" : 1215752192.0,
							"parameter_initial" : [ 1.0 ],
							"parameter_unitstyle" : 1,
							"parameter_defer" : 1
						}

					}
,
					"textcolor" : [ 0.094118, 0.117647, 0.137255, 1.0 ],
					"tricolor2" : [ 1.0, 1.0, 1.0, 0.301961 ],
					"varname" : "gatepct[8]"
				}

			}
, 			{
				"box" : 				{
					"id" : "obj-29",
					"maxclass" : "newobj",
					"numinlets" : 2,
					"numoutlets" : 2,
					"outlettype" : [ "", "" ],
					"patching_rect" : [ 408.0, 249.0, 51.0, 22.0 ],
					"style" : "",
					"text" : "route /0"
				}

			}
, 			{
				"box" : 				{
					"fontsize" : 5.088451,
					"id" : "obj-59",
					"maxclass" : "newobj",
					"numinlets" : 2,
					"numoutlets" : 1,
					"outlettype" : [ "int" ],
					"patching_rect" : [ 128.0, 131.519165, 39.0, 14.0 ],
					"style" : "",
					"text" : "i"
				}

			}
, 			{
				"box" : 				{
					"fontname" : "Arial Bold",
					"fontsize" : 9.0,
					"id" : "obj-94",
					"maxclass" : "comment",
					"numinlets" : 1,
					"numoutlets" : 0,
					"patching_rect" : [ 177.0, 101.519165, 112.0, 17.0 ],
					"presentation" : 1,
					"presentation_rect" : [ 17.0, 9.742615, 45.0, 17.0 ],
					"style" : "",
					"text" : "port :",
					"textcolor" : [ 0.862745, 0.870588, 0.878431, 1.0 ]
				}

			}
, 			{
				"box" : 				{
					"activebgcolor" : [ 1.0, 1.0, 1.0, 0.3 ],
					"activeslidercolor" : [ 0.278431, 0.839216, 1.0, 1.0 ],
					"activetricolor" : [ 0.278431, 0.839216, 1.0, 1.0 ],
					"activetricolor2" : [ 1.0, 1.0, 1.0, 0.301961 ],
					"annotation" : "",
					"appearance" : 1,
					"bordercolor" : [ 1.0, 1.0, 1.0, 0.3 ],
					"focusbordercolor" : [ 1.0, 1.0, 1.0, 0.3 ],
					"id" : "obj-95",
					"maxclass" : "live.numbox",
					"numinlets" : 1,
					"numoutlets" : 2,
					"outlettype" : [ "", "float" ],
					"parameter_enable" : 1,
					"patching_rect" : [ 128.0, 102.519165, 36.0, 15.0 ],
					"presentation" : 1,
					"presentation_rect" : [ 46.0, 10.742615, 36.0, 15.0 ],
					"saved_attribute_attributes" : 					{
						"valueof" : 						{
							"parameter_longname" : "gatepct[18]",
							"parameter_shortname" : "gatepct",
							"parameter_type" : 0,
							"parameter_mmin" : 1.0,
							"parameter_mmax" : 10000.0,
							"parameter_initial" : [ 1.0 ],
							"parameter_unitstyle" : 0,
							"parameter_defer" : 1
						}

					}
,
					"textcolor" : [ 0.094118, 0.117647, 0.137255, 1.0 ],
					"tricolor2" : [ 1.0, 1.0, 1.0, 0.301961 ],
					"varname" : "gatepct[17]"
				}

			}
, 			{
				"box" : 				{
					"fontsize" : 4.0,
					"id" : "obj-93",
					"maxclass" : "newobj",
					"numinlets" : 1,
					"numoutlets" : 1,
					"outlettype" : [ "" ],
					"patching_rect" : [ 78.5, 102.519165, 38.0, 13.0 ],
					"style" : "",
					"text" : "loadmess 7510"
				}

			}
, 			{
				"box" : 				{
					"id" : "obj-28",
					"maxclass" : "message",
					"numinlets" : 2,
					"numoutlets" : 1,
					"outlettype" : [ "" ],
					"patching_rect" : [ 128.0, 151.118164, 48.0, 22.0 ],
					"style" : "",
					"text" : "port $1"
				}

			}
, 			{
				"box" : 				{
					"id" : "obj-24",
					"maxclass" : "newobj",
					"numinlets" : 1,
					"numoutlets" : 0,
					"patching_rect" : [ 308.0, 693.0, 115.0, 22.0 ],
					"style" : "",
					"text" : "s presence_10800s"
				}

			}
, 			{
				"box" : 				{
					"id" : "obj-23",
					"maxclass" : "newobj",
					"numinlets" : 1,
					"numoutlets" : 0,
					"patching_rect" : [ 278.0, 633.0, 109.0, 22.0 ],
					"style" : "",
					"text" : "s presence_1800s"
				}

			}
, 			{
				"box" : 				{
					"id" : "obj-22",
					"maxclass" : "newobj",
					"numinlets" : 1,
					"numoutlets" : 0,
					"patching_rect" : [ 248.0, 574.0, 102.0, 22.0 ],
					"style" : "",
					"text" : "s presence_360s"
				}

			}
, 			{
				"box" : 				{
					"id" : "obj-21",
					"maxclass" : "newobj",
					"numinlets" : 1,
					"numoutlets" : 0,
					"patching_rect" : [ 218.0, 513.0, 95.0, 22.0 ],
					"style" : "",
					"text" : "s presence_60s"
				}

			}
, 			{
				"box" : 				{
					"id" : "obj-20",
					"maxclass" : "newobj",
					"numinlets" : 1,
					"numoutlets" : 0,
					"patching_rect" : [ 188.0, 453.0, 95.0, 22.0 ],
					"style" : "",
					"text" : "s presence_30s"
				}

			}
, 			{
				"box" : 				{
					"id" : "obj-19",
					"maxclass" : "newobj",
					"numinlets" : 1,
					"numoutlets" : 0,
					"patching_rect" : [ 158.0, 393.0, 95.0, 22.0 ],
					"style" : "",
					"text" : "s presence_10s"
				}

			}
, 			{
				"box" : 				{
					"id" : "obj-18",
					"maxclass" : "newobj",
					"numinlets" : 1,
					"numoutlets" : 0,
					"patching_rect" : [ 128.0, 333.0, 89.0, 22.0 ],
					"style" : "",
					"text" : "s presence_1s"
				}

			}
, 			{
				"box" : 				{
					"fontname" : "Arial Bold",
					"fontsize" : 9.0,
					"id" : "obj-17",
					"maxclass" : "comment",
					"numinlets" : 1,
					"numoutlets" : 0,
					"patching_rect" : [ 130.5, 570.0, 91.0, 17.0 ],
					"presentation" : 1,
					"presentation_rect" : [ 12.0, 26.742615, 128.0, 17.0 ],
					"style" : "",
					"text" : "PRESENCE\n",
					"textcolor" : [ 0.862745, 0.870588, 0.878431, 1.0 ]
				}

			}
, 			{
				"box" : 				{
					"fontname" : "Arial Bold",
					"fontsize" : 9.0,
					"id" : "obj-15",
					"maxclass" : "comment",
					"numinlets" : 1,
					"numoutlets" : 0,
					"patching_rect" : [ 356.0, 668.0, 193.0, 17.0 ],
					"presentation" : 1,
					"presentation_rect" : [ 52.0, 132.3992, 97.0, 17.0 ],
					"style" : "",
					"text" : "10800s",
					"textcolor" : [ 0.862745, 0.870588, 0.878431, 1.0 ]
				}

			}
, 			{
				"box" : 				{
					"activebgcolor" : [ 1.0, 1.0, 1.0, 0.3 ],
					"activeslidercolor" : [ 0.278431, 0.839216, 1.0, 1.0 ],
					"activetricolor" : [ 0.278431, 0.839216, 1.0, 1.0 ],
					"activetricolor2" : [ 1.0, 1.0, 1.0, 0.301961 ],
					"annotation" : "",
					"appearance" : 1,
					"bordercolor" : [ 1.0, 1.0, 1.0, 0.3 ],
					"focusbordercolor" : [ 1.0, 1.0, 1.0, 0.3 ],
					"id" : "obj-16",
					"maxclass" : "live.numbox",
					"numinlets" : 1,
					"numoutlets" : 2,
					"outlettype" : [ "", "float" ],
					"parameter_enable" : 1,
					"patching_rect" : [ 308.0, 668.0, 36.0, 15.0 ],
					"presentation" : 1,
					"presentation_rect" : [ 16.0, 132.3992, 36.0, 15.0 ],
					"saved_attribute_attributes" : 					{
						"valueof" : 						{
							"parameter_longname" : "gatepct[8]",
							"parameter_shortname" : "gatepct",
							"parameter_type" : 0,
							"parameter_mmin" : -727379968.0,
							"parameter_mmax" : 1215752192.0,
							"parameter_initial" : [ 1.0 ],
							"parameter_unitstyle" : 1,
							"parameter_defer" : 1
						}

					}
,
					"textcolor" : [ 0.094118, 0.117647, 0.137255, 1.0 ],
					"tricolor2" : [ 1.0, 1.0, 1.0, 0.301961 ],
					"varname" : "gatepct[7]"
				}

			}
, 			{
				"box" : 				{
					"fontname" : "Arial Bold",
					"fontsize" : 9.0,
					"id" : "obj-13",
					"maxclass" : "comment",
					"numinlets" : 1,
					"numoutlets" : 0,
					"patching_rect" : [ 326.0, 608.0, 193.0, 17.0 ],
					"presentation" : 1,
					"presentation_rect" : [ 52.0, 117.3992, 97.0, 17.0 ],
					"style" : "",
					"text" : "1800s",
					"textcolor" : [ 0.862745, 0.870588, 0.878431, 1.0 ]
				}

			}
, 			{
				"box" : 				{
					"activebgcolor" : [ 1.0, 1.0, 1.0, 0.3 ],
					"activeslidercolor" : [ 0.278431, 0.839216, 1.0, 1.0 ],
					"activetricolor" : [ 0.278431, 0.839216, 1.0, 1.0 ],
					"activetricolor2" : [ 1.0, 1.0, 1.0, 0.301961 ],
					"annotation" : "",
					"appearance" : 1,
					"bordercolor" : [ 1.0, 1.0, 1.0, 0.3 ],
					"focusbordercolor" : [ 1.0, 1.0, 1.0, 0.3 ],
					"id" : "obj-14",
					"maxclass" : "live.numbox",
					"numinlets" : 1,
					"numoutlets" : 2,
					"outlettype" : [ "", "float" ],
					"parameter_enable" : 1,
					"patching_rect" : [ 278.0, 608.0, 36.0, 15.0 ],
					"presentation" : 1,
					"presentation_rect" : [ 16.0, 117.3992, 36.0, 15.0 ],
					"saved_attribute_attributes" : 					{
						"valueof" : 						{
							"parameter_longname" : "gatepct[7]",
							"parameter_shortname" : "gatepct",
							"parameter_type" : 0,
							"parameter_mmin" : -727379968.0,
							"parameter_mmax" : 1215752192.0,
							"parameter_initial" : [ 1.0 ],
							"parameter_unitstyle" : 1,
							"parameter_defer" : 1
						}

					}
,
					"textcolor" : [ 0.094118, 0.117647, 0.137255, 1.0 ],
					"tricolor2" : [ 1.0, 1.0, 1.0, 0.301961 ],
					"varname" : "gatepct[6]"
				}

			}
, 			{
				"box" : 				{
					"fontname" : "Arial Bold",
					"fontsize" : 9.0,
					"id" : "obj-11",
					"maxclass" : "comment",
					"numinlets" : 1,
					"numoutlets" : 0,
					"patching_rect" : [ 296.0, 548.0, 193.0, 17.0 ],
					"presentation" : 1,
					"presentation_rect" : [ 52.0, 102.3992, 97.0, 17.0 ],
					"style" : "",
					"text" : "360s",
					"textcolor" : [ 0.862745, 0.870588, 0.878431, 1.0 ]
				}

			}
, 			{
				"box" : 				{
					"activebgcolor" : [ 1.0, 1.0, 1.0, 0.3 ],
					"activeslidercolor" : [ 0.278431, 0.839216, 1.0, 1.0 ],
					"activetricolor" : [ 0.278431, 0.839216, 1.0, 1.0 ],
					"activetricolor2" : [ 1.0, 1.0, 1.0, 0.301961 ],
					"annotation" : "",
					"appearance" : 1,
					"bordercolor" : [ 1.0, 1.0, 1.0, 0.3 ],
					"focusbordercolor" : [ 1.0, 1.0, 1.0, 0.3 ],
					"id" : "obj-12",
					"maxclass" : "live.numbox",
					"numinlets" : 1,
					"numoutlets" : 2,
					"outlettype" : [ "", "float" ],
					"parameter_enable" : 1,
					"patching_rect" : [ 248.0, 548.0, 36.0, 15.0 ],
					"presentation" : 1,
					"presentation_rect" : [ 16.0, 102.3992, 36.0, 15.0 ],
					"saved_attribute_attributes" : 					{
						"valueof" : 						{
							"parameter_longname" : "gatepct[4]",
							"parameter_shortname" : "gatepct",
							"parameter_type" : 0,
							"parameter_mmin" : -727379968.0,
							"parameter_mmax" : 1215752192.0,
							"parameter_initial" : [ 1.0 ],
							"parameter_unitstyle" : 1,
							"parameter_defer" : 1
						}

					}
,
					"textcolor" : [ 0.094118, 0.117647, 0.137255, 1.0 ],
					"tricolor2" : [ 1.0, 1.0, 1.0, 0.301961 ],
					"varname" : "gatepct[4]"
				}

			}
, 			{
				"box" : 				{
					"fontname" : "Arial Bold",
					"fontsize" : 9.0,
					"id" : "obj-9",
					"maxclass" : "comment",
					"numinlets" : 1,
					"numoutlets" : 0,
					"patching_rect" : [ 266.0, 488.0, 193.0, 17.0 ],
					"presentation" : 1,
					"presentation_rect" : [ 52.0, 87.3992, 97.0, 17.0 ],
					"style" : "",
					"text" : "60s",
					"textcolor" : [ 0.862745, 0.870588, 0.878431, 1.0 ]
				}

			}
, 			{
				"box" : 				{
					"activebgcolor" : [ 1.0, 1.0, 1.0, 0.3 ],
					"activeslidercolor" : [ 0.278431, 0.839216, 1.0, 1.0 ],
					"activetricolor" : [ 0.278431, 0.839216, 1.0, 1.0 ],
					"activetricolor2" : [ 1.0, 1.0, 1.0, 0.301961 ],
					"annotation" : "",
					"appearance" : 1,
					"bordercolor" : [ 1.0, 1.0, 1.0, 0.3 ],
					"focusbordercolor" : [ 1.0, 1.0, 1.0, 0.3 ],
					"id" : "obj-10",
					"maxclass" : "live.numbox",
					"numinlets" : 1,
					"numoutlets" : 2,
					"outlettype" : [ "", "float" ],
					"parameter_enable" : 1,
					"patching_rect" : [ 218.0, 488.0, 36.0, 15.0 ],
					"presentation" : 1,
					"presentation_rect" : [ 16.0, 87.3992, 36.0, 15.0 ],
					"saved_attribute_attributes" : 					{
						"valueof" : 						{
							"parameter_longname" : "gatepct[3]",
							"parameter_shortname" : "gatepct",
							"parameter_type" : 0,
							"parameter_mmin" : -727379968.0,
							"parameter_mmax" : 1215752192.0,
							"parameter_initial" : [ 1.0 ],
							"parameter_unitstyle" : 1,
							"parameter_defer" : 1
						}

					}
,
					"textcolor" : [ 0.094118, 0.117647, 0.137255, 1.0 ],
					"tricolor2" : [ 1.0, 1.0, 1.0, 0.301961 ],
					"varname" : "gatepct[3]"
				}

			}
, 			{
				"box" : 				{
					"fontname" : "Arial Bold",
					"fontsize" : 9.0,
					"id" : "obj-7",
					"maxclass" : "comment",
					"numinlets" : 1,
					"numoutlets" : 0,
					"patching_rect" : [ 236.0, 428.0, 193.0, 17.0 ],
					"presentation" : 1,
					"presentation_rect" : [ 52.0, 72.3992, 97.0, 17.0 ],
					"style" : "",
					"text" : "30s",
					"textcolor" : [ 0.862745, 0.870588, 0.878431, 1.0 ]
				}

			}
, 			{
				"box" : 				{
					"activebgcolor" : [ 1.0, 1.0, 1.0, 0.3 ],
					"activeslidercolor" : [ 0.278431, 0.839216, 1.0, 1.0 ],
					"activetricolor" : [ 0.278431, 0.839216, 1.0, 1.0 ],
					"activetricolor2" : [ 1.0, 1.0, 1.0, 0.301961 ],
					"annotation" : "",
					"appearance" : 1,
					"bordercolor" : [ 1.0, 1.0, 1.0, 0.3 ],
					"focusbordercolor" : [ 1.0, 1.0, 1.0, 0.3 ],
					"id" : "obj-8",
					"maxclass" : "live.numbox",
					"numinlets" : 1,
					"numoutlets" : 2,
					"outlettype" : [ "", "float" ],
					"parameter_enable" : 1,
					"patching_rect" : [ 188.0, 428.0, 36.0, 15.0 ],
					"presentation" : 1,
					"presentation_rect" : [ 16.0, 72.3992, 36.0, 15.0 ],
					"saved_attribute_attributes" : 					{
						"valueof" : 						{
							"parameter_longname" : "gatepct[2]",
							"parameter_shortname" : "gatepct",
							"parameter_type" : 0,
							"parameter_mmin" : -727379968.0,
							"parameter_mmax" : 1215752192.0,
							"parameter_initial" : [ 1.0 ],
							"parameter_unitstyle" : 1,
							"parameter_defer" : 1
						}

					}
,
					"textcolor" : [ 0.094118, 0.117647, 0.137255, 1.0 ],
					"tricolor2" : [ 1.0, 1.0, 1.0, 0.301961 ],
					"varname" : "gatepct[2]"
				}

			}
, 			{
				"box" : 				{
					"fontname" : "Arial Bold",
					"fontsize" : 9.0,
					"id" : "obj-5",
					"maxclass" : "comment",
					"numinlets" : 1,
					"numoutlets" : 0,
					"patching_rect" : [ 206.0, 368.0, 193.0, 17.0 ],
					"presentation" : 1,
					"presentation_rect" : [ 52.0, 57.3992, 97.0, 17.0 ],
					"style" : "",
					"text" : "10s",
					"textcolor" : [ 0.862745, 0.870588, 0.878431, 1.0 ]
				}

			}
, 			{
				"box" : 				{
					"activebgcolor" : [ 1.0, 1.0, 1.0, 0.3 ],
					"activeslidercolor" : [ 0.278431, 0.839216, 1.0, 1.0 ],
					"activetricolor" : [ 0.278431, 0.839216, 1.0, 1.0 ],
					"activetricolor2" : [ 1.0, 1.0, 1.0, 0.301961 ],
					"annotation" : "",
					"appearance" : 1,
					"bordercolor" : [ 1.0, 1.0, 1.0, 0.3 ],
					"focusbordercolor" : [ 1.0, 1.0, 1.0, 0.3 ],
					"id" : "obj-6",
					"maxclass" : "live.numbox",
					"numinlets" : 1,
					"numoutlets" : 2,
					"outlettype" : [ "", "float" ],
					"parameter_enable" : 1,
					"patching_rect" : [ 158.0, 368.0, 36.0, 15.0 ],
					"presentation" : 1,
					"presentation_rect" : [ 16.0, 57.3992, 36.0, 15.0 ],
					"saved_attribute_attributes" : 					{
						"valueof" : 						{
							"parameter_longname" : "gatepct[1]",
							"parameter_shortname" : "gatepct",
							"parameter_type" : 0,
							"parameter_mmin" : -727379968.0,
							"parameter_mmax" : 1215752192.0,
							"parameter_initial" : [ 1.0 ],
							"parameter_unitstyle" : 1,
							"parameter_defer" : 1
						}

					}
,
					"textcolor" : [ 0.094118, 0.117647, 0.137255, 1.0 ],
					"tricolor2" : [ 1.0, 1.0, 1.0, 0.301961 ],
					"varname" : "gatepct[1]"
				}

			}
, 			{
				"box" : 				{
					"fontname" : "Arial Bold",
					"fontsize" : 9.0,
					"id" : "obj-62",
					"maxclass" : "comment",
					"numinlets" : 1,
					"numoutlets" : 0,
					"patching_rect" : [ 176.0, 308.0, 193.0, 17.0 ],
					"presentation" : 1,
					"presentation_rect" : [ 52.0, 42.3992, 97.0, 17.0 ],
					"style" : "",
					"text" : "1s",
					"textcolor" : [ 0.862745, 0.870588, 0.878431, 1.0 ]
				}

			}
, 			{
				"box" : 				{
					"activebgcolor" : [ 1.0, 1.0, 1.0, 0.3 ],
					"activeslidercolor" : [ 0.278431, 0.839216, 1.0, 1.0 ],
					"activetricolor" : [ 0.278431, 0.839216, 1.0, 1.0 ],
					"activetricolor2" : [ 1.0, 1.0, 1.0, 0.301961 ],
					"annotation" : "",
					"appearance" : 1,
					"bordercolor" : [ 1.0, 1.0, 1.0, 0.3 ],
					"focusbordercolor" : [ 1.0, 1.0, 1.0, 0.3 ],
					"id" : "obj-63",
					"maxclass" : "live.numbox",
					"numinlets" : 1,
					"numoutlets" : 2,
					"outlettype" : [ "", "float" ],
					"parameter_enable" : 1,
					"patching_rect" : [ 128.0, 308.0, 36.0, 15.0 ],
					"presentation" : 1,
					"presentation_rect" : [ 16.0, 42.3992, 36.0, 15.0 ],
					"saved_attribute_attributes" : 					{
						"valueof" : 						{
							"parameter_longname" : "gatepct[6]",
							"parameter_shortname" : "gatepct",
							"parameter_type" : 0,
							"parameter_mmin" : -727379968.0,
							"parameter_mmax" : 1215752192.0,
							"parameter_initial" : [ 1.0 ],
							"parameter_unitstyle" : 1,
							"parameter_defer" : 1
						}

					}
,
					"textcolor" : [ 0.094118, 0.117647, 0.137255, 1.0 ],
					"tricolor2" : [ 1.0, 1.0, 1.0, 0.301961 ],
					"varname" : "gatepct[5]"
				}

			}
, 			{
				"box" : 				{
					"id" : "obj-4",
					"maxclass" : "newobj",
					"numinlets" : 8,
					"numoutlets" : 8,
					"outlettype" : [ "", "", "", "", "", "", "", "" ],
					"patching_rect" : [ 128.0, 249.0, 229.0, 22.0 ],
					"style" : "",
					"text" : "route /0 /10 /30 /60 /360 /1800 /10800"
				}

			}
, 			{
				"box" : 				{
					"id" : "obj-3",
					"maxclass" : "newobj",
					"numinlets" : 4,
					"numoutlets" : 4,
					"outlettype" : [ "", "", "", "" ],
					"patching_rect" : [ 128.0, 217.0, 859.0, 22.0 ],
					"style" : "",
					"text" : "route /CV/presence /CV/flow /CV/presenceStanDev"
				}

			}
, 			{
				"box" : 				{
					"id" : "obj-2",
					"maxclass" : "newobj",
					"numinlets" : 1,
					"numoutlets" : 1,
					"outlettype" : [ "" ],
					"patching_rect" : [ 128.0, 187.0, 99.0, 22.0 ],
					"style" : "",
					"text" : "udpreceive 7510"
				}

			}
, 			{
				"box" : 				{
					"comment" : "set udpreceive port",
					"id" : "obj-1",
					"index" : 0,
					"maxclass" : "inlet",
					"numinlets" : 0,
					"numoutlets" : 1,
					"outlettype" : [ "" ],
					"patching_rect" : [ 128.0, 57.0, 30.0, 30.0 ],
					"style" : ""
				}

			}
, 			{
				"box" : 				{
					"fontname" : "Arial Bold",
					"fontsize" : 9.0,
					"id" : "obj-27",
					"maxclass" : "comment",
					"numinlets" : 1,
					"numoutlets" : 0,
					"patching_rect" : [ 87.554688, 6.910889, 112.0, 17.0 ],
					"presentation" : 1,
					"presentation_rect" : [ 89.0, 9.742615, 67.0, 17.0 ],
					"style" : "",
					"text" : "VISION_osc",
					"textcolor" : [ 1.0, 1.0, 1.0, 1.0 ]
				}

			}
, 			{
				"box" : 				{
					"angle" : 0.0,
					"background" : 1,
					"bgcolor" : [ 0.367404, 0.389405, 0.430238, 1.0 ],
					"id" : "obj-25",
					"maxclass" : "panel",
					"mode" : 0,
					"numinlets" : 1,
					"numoutlets" : 0,
					"patching_rect" : [ 29.852829, 14.033447, 37.0, 5.0 ],
					"presentation" : 1,
					"presentation_rect" : [ 2.949341, 5.3974, 157.550659, 151.003601 ],
					"proportion" : 0.39,
					"rounded" : 0,
					"style" : ""
				}

			}
, 			{
				"box" : 				{
					"angle" : 270.0,
					"background" : 1,
					"bgcolor" : [ 0.862745, 0.870588, 0.878431, 0.5 ],
					"border" : 2,
					"bordercolor" : [ 0.65098, 0.666667, 0.662745, 1.0 ],
					"id" : "obj-26",
					"maxclass" : "panel",
					"mode" : 0,
					"numinlets" : 1,
					"numoutlets" : 0,
					"patching_rect" : [ 4.0, 6.910889, 12.0, 188.0 ],
					"presentation" : 1,
					"presentation_rect" : [ -0.239624, 1.338165, 164.739624, 158.658203 ],
					"proportion" : 0.39,
					"style" : ""
				}

			}
 ],
		"lines" : [ 			{
				"patchline" : 				{
					"destination" : [ "obj-95", 0 ],
					"source" : [ "obj-1", 0 ]
				}

			}
, 			{
				"patchline" : 				{
					"destination" : [ "obj-21", 0 ],
					"source" : [ "obj-10", 0 ]
				}

			}
, 			{
				"patchline" : 				{
					"destination" : [ "obj-22", 0 ],
					"source" : [ "obj-12", 0 ]
				}

			}
, 			{
				"patchline" : 				{
					"destination" : [ "obj-23", 0 ],
					"source" : [ "obj-14", 0 ]
				}

			}
, 			{
				"patchline" : 				{
					"destination" : [ "obj-24", 0 ],
					"source" : [ "obj-16", 0 ]
				}

			}
, 			{
				"patchline" : 				{
					"destination" : [ "obj-3", 0 ],
					"source" : [ "obj-2", 0 ]
				}

			}
, 			{
				"patchline" : 				{
					"destination" : [ "obj-2", 0 ],
					"source" : [ "obj-28", 0 ]
				}

			}
, 			{
				"patchline" : 				{
					"destination" : [ "obj-32", 0 ],
					"source" : [ "obj-29", 0 ]
				}

			}
, 			{
				"patchline" : 				{
					"destination" : [ "obj-29", 0 ],
					"source" : [ "obj-3", 1 ]
				}

			}
, 			{
				"patchline" : 				{
					"destination" : [ "obj-38", 0 ],
					"source" : [ "obj-3", 2 ]
				}

			}
, 			{
				"patchline" : 				{
					"destination" : [ "obj-4", 0 ],
					"source" : [ "obj-3", 0 ]
				}

			}
, 			{
				"patchline" : 				{
					"destination" : [ "obj-30", 0 ],
					"source" : [ "obj-32", 0 ]
				}

			}
, 			{
				"patchline" : 				{
					"destination" : [ "obj-35", 0 ],
					"source" : [ "obj-37", 0 ]
				}

			}
, 			{
				"patchline" : 				{
					"destination" : [ "obj-37", 0 ],
					"source" : [ "obj-38", 0 ]
				}

			}
, 			{
				"patchline" : 				{
					"destination" : [ "obj-41", 6 ],
					"source" : [ "obj-4", 6 ]
				}

			}
, 			{
				"patchline" : 				{
					"destination" : [ "obj-41", 5 ],
					"source" : [ "obj-4", 5 ]
				}

			}
, 			{
				"patchline" : 				{
					"destination" : [ "obj-41", 4 ],
					"source" : [ "obj-4", 4 ]
				}

			}
, 			{
				"patchline" : 				{
					"destination" : [ "obj-41", 3 ],
					"source" : [ "obj-4", 3 ]
				}

			}
, 			{
				"patchline" : 				{
					"destination" : [ "obj-41", 2 ],
					"source" : [ "obj-4", 2 ]
				}

			}
, 			{
				"patchline" : 				{
					"destination" : [ "obj-41", 1 ],
					"source" : [ "obj-4", 1 ]
				}

			}
, 			{
				"patchline" : 				{
					"destination" : [ "obj-41", 0 ],
					"source" : [ "obj-4", 0 ]
				}

			}
, 			{
				"patchline" : 				{
					"destination" : [ "obj-10", 0 ],
					"source" : [ "obj-41", 3 ]
				}

			}
, 			{
				"patchline" : 				{
					"destination" : [ "obj-12", 0 ],
					"source" : [ "obj-41", 4 ]
				}

			}
, 			{
				"patchline" : 				{
					"destination" : [ "obj-14", 0 ],
					"source" : [ "obj-41", 5 ]
				}

			}
, 			{
				"patchline" : 				{
					"destination" : [ "obj-16", 0 ],
					"source" : [ "obj-41", 6 ]
				}

			}
, 			{
				"patchline" : 				{
					"destination" : [ "obj-6", 0 ],
					"source" : [ "obj-41", 1 ]
				}

			}
, 			{
				"patchline" : 				{
					"destination" : [ "obj-63", 0 ],
					"source" : [ "obj-41", 0 ]
				}

			}
, 			{
				"patchline" : 				{
					"destination" : [ "obj-8", 0 ],
					"source" : [ "obj-41", 2 ]
				}

			}
, 			{
				"patchline" : 				{
					"destination" : [ "obj-28", 0 ],
					"source" : [ "obj-59", 0 ]
				}

			}
, 			{
				"patchline" : 				{
					"destination" : [ "obj-19", 0 ],
					"source" : [ "obj-6", 0 ]
				}

			}
, 			{
				"patchline" : 				{
					"destination" : [ "obj-18", 0 ],
					"source" : [ "obj-63", 0 ]
				}

			}
, 			{
				"patchline" : 				{
					"destination" : [ "obj-20", 0 ],
					"source" : [ "obj-8", 0 ]
				}

			}
, 			{
				"patchline" : 				{
					"destination" : [ "obj-95", 0 ],
					"source" : [ "obj-93", 0 ]
				}

			}
, 			{
				"patchline" : 				{
					"destination" : [ "obj-59", 0 ],
					"source" : [ "obj-95", 0 ]
				}

			}
 ],
		"parameters" : 		{
			"obj-10" : [ "gatepct[3]", "gatepct", 0 ],
			"obj-63" : [ "gatepct[6]", "gatepct", 0 ],
			"obj-37" : [ "gatepct[9]", "gatepct", 0 ],
			"obj-6" : [ "gatepct[1]", "gatepct", 0 ],
			"obj-32" : [ "gatepct[5]", "gatepct", 0 ],
			"obj-8" : [ "gatepct[2]", "gatepct", 0 ],
			"obj-12" : [ "gatepct[4]", "gatepct", 0 ],
			"obj-16" : [ "gatepct[8]", "gatepct", 0 ],
			"obj-95" : [ "gatepct[18]", "gatepct", 0 ],
			"obj-14" : [ "gatepct[7]", "gatepct", 0 ]
		}
,
		"dependency_cache" : [  ],
		"autosave" : 0,
		"styles" : [ 			{
				"name" : "AudioStatus_Menu",
				"default" : 				{
					"bgfillcolor" : 					{
						"type" : "color",
						"color" : [ 0.294118, 0.313726, 0.337255, 1 ],
						"color1" : [ 0.454902, 0.462745, 0.482353, 0.0 ],
						"color2" : [ 0.290196, 0.309804, 0.301961, 1.0 ],
						"angle" : 270.0,
						"proportion" : 0.39,
						"autogradient" : 0
					}

				}
,
				"parentstyle" : "",
				"multi" : 0
			}
 ]
	}

}
